<?xml version="1.0" standalone="no"?>
<!DOCTYPE svg PUBLIC "-//W3C//DTD SVG 1.1//EN" "http://www.w3.org/Graphics/SVG/1.1/DTD/svg11.dtd" >
<svg xmlns="http://www.w3.org/2000/svg" xmlns:xlink="http://www.w3.org/1999/xlink" version="1.1">
<metadata></metadata>
<defs>
<font id="louisregular" horiz-adv-x="1126" >
<font-face units-per-em="2048" ascent="1536" descent="-512" />
<missing-glyph horiz-adv-x="450" />
<glyph unicode="&#xfb01;" horiz-adv-x="1171" d="M41 958v189h182v67q0 219 113 317.5t326 98.5q35 0 75.5 -3t53.5 -5v-199q-20 4 -60.5 6.5t-68.5 2.5q-125 0 -179.5 -47.5t-54.5 -176.5v-61h594v-1147h-205v958h-389v-958h-205v958h-182z" />
<glyph unicode="&#xfb02;" horiz-adv-x="1236" d="M41 950v197h182v67q0 219 116 317.5t329 98.5q37 0 89 -2t108.5 -5t114.5 -7t107 -8v-1608h-204v1425q-70 6 -124 8.5t-97 2.5q-125 0 -179.5 -46.5t-54.5 -175.5v-67h270v-197h-270v-950h-205v950h-182z" />
<glyph horiz-adv-x="0" />
<glyph unicode="&#xd;" horiz-adv-x="450" />
<glyph unicode=" "  horiz-adv-x="450" />
<glyph unicode="&#x09;" horiz-adv-x="450" />
<glyph unicode="&#xa0;" horiz-adv-x="450" />
<glyph unicode="!" horiz-adv-x="520" d="M135 0v260h250v-260h-250zM141 1536h238l-29 -1063h-180z" />
<glyph unicode="&#x22;" horiz-adv-x="741" d="M102 938v598h215l-43 -598h-172zM455 938v598h215l-43 -598h-172z" />
<glyph unicode="#" d="M35 391v139h219l39 373h-223v139h237l41 392h154l-41 -392h272l41 392h154l-41 -392h205v-139h-220l-38 -373h223v-139h-238l-41 -391h-153l41 391h-273l-41 -391h-153l41 391h-205zM408 530h272l39 373h-273z" />
<glyph unicode="$" d="M84 477h205q4 -86 65.5 -153.5t159.5 -83.5v465l-47 16q-68 25 -130.5 53.5t-110.5 72.5t-75.5 108.5t-27.5 160.5q0 80 28.5 143.5t81 108.5t124 72.5t157.5 34.5v184h102v-184q88 -6 164 -34t129.5 -79t82 -125t26.5 -170h-205q0 82 -48 147.5t-149 79.5v-417l29 -9 q78 -25 147.5 -60.5t122 -85.5t83 -117.5t30.5 -158.5q0 -84 -30.5 -152.5t-86 -118.5t-131 -81t-164.5 -37v-200h-102v202q-102 8 -181 44t-133.5 91.5t-84 128t-31.5 154.5zM324 1112q0 -43 16 -75.5t43 -56.5t60.5 -41t70.5 -30v385q-55 -6 -92 -24.5t-58.5 -44 t-30.5 -55t-9 -58.5zM616 242q92 12 150.5 66.5t58.5 146.5q0 45 -17 79.5t-47 59t-68 43t-77 33.5v-428z" />
<glyph unicode="%" d="M8 1212v41q0 70 20.5 126.5t57.5 95t86 60t109 21.5q119 0 196.5 -80.5t77.5 -222.5v-41q0 -141 -78 -223t-196 -82q-59 0 -108.5 21.5t-86.5 61.5t-57.5 96.5t-20.5 125.5zM129 0l739 1536h131l-739 -1536h-131zM150 1212q0 -86 35.5 -129t95.5 -43q61 0 97 43t36 129 v41q0 86 -36 129t-97 43q-59 0 -95 -43t-36 -129v-41zM571 285v41q0 70 20.5 126t57.5 95t86 60.5t109 21.5q119 0 196.5 -81t77.5 -222v-41q0 -141 -77.5 -223t-196.5 -82q-59 0 -108.5 21.5t-86.5 61t-57.5 96t-20.5 126.5zM713 285q0 -86 35.5 -129t95.5 -43q61 0 97 43 t36 129v41q0 86 -36 129t-97 43q-59 0 -95 -43t-36 -129v-41z" />
<glyph unicode="&#x26;" horiz-adv-x="1318" d="M82 418q0 76 23.5 138t61.5 112.5t87 91.5t100 71q-31 39 -58.5 77t-50 81t-35.5 91t-13 108q0 94 31.5 162.5t85 114.5t121 68.5t140.5 22.5q86 0 159 -23.5t124 -68.5t80 -108.5t29 -145.5q0 -113 -79 -222t-237 -204l273 -315q27 70 40 140.5t21 138.5h203 q-10 -98 -40 -211t-83 -234l246 -283v-20h-260l-117 139q-72 -68 -163 -113.5t-208 -45.5q-102 0 -190 29.5t-152.5 87t-101.5 138t-37 183.5zM295 418q0 -121 74.5 -183.5t191.5 -62.5q82 0 143.5 33t108.5 80l-346 405q-33 -20 -63.5 -48t-55 -61.5t-39 -74.5t-14.5 -88z M401 1188q0 -59 38 -125t98 -137q117 59 171 131.5t54 144.5q0 66 -44 115t-132 49q-98 0 -141.5 -52t-43.5 -126z" />
<glyph unicode="'" horiz-adv-x="389" d="M102 938v598h205l-43 -598h-162z" />
<glyph unicode="(" horiz-adv-x="708" d="M129 684q0 129 19.5 260t62.5 264t114.5 266.5t176.5 268.5h186q-182 -264 -262 -527.5t-80 -531.5t80 -530.5t262 -526.5h-186q-209 268 -291 533.5t-82 523.5z" />
<glyph unicode=")" horiz-adv-x="708" d="M20 -373q182 264 262 527.5t80 531.5t-79.5 530.5t-262.5 526.5h187q209 -268 291 -533.5t82 -523.5q0 -129 -19.5 -260t-62.5 -264t-115 -266.5t-176 -268.5h-187z" />
<glyph unicode="*" horiz-adv-x="905" d="M53 1184l51 159l287 -116l-22 309h168l-23 -309l287 116l51 -159l-299 -74l199 -236l-138 -98l-161 260l-162 -260l-137 98l198 236z" />
<glyph unicode="+" horiz-adv-x="1200" d="M61 524v181h447v483h184v-483h447v-181h-447v-483h-184v483h-447z" />
<glyph unicode="," horiz-adv-x="466" d="M82 -231q92 29 123 88t31 118q0 25 -23 25h-111v268h273v-223q0 -63 -14.5 -126.5t-48 -116t-90 -88.5t-140.5 -48v103z" />
<glyph unicode="-" horiz-adv-x="913" d="M82 709v180h749v-180h-749z" />
<glyph unicode="." horiz-adv-x="466" d="M104 0v268h258v-268h-258z" />
<glyph unicode="/" horiz-adv-x="868" d="M37 -158l598 1805h196l-595 -1805h-199z" />
<glyph unicode="0" horiz-adv-x="1228" d="M133 469v598q0 61 6 104t21 82q25 72 70.5 128.5t105 95.5t130.5 59t148 20q76 0 148 -20t131 -59t105 -95.5t71 -128.5q14 -39 20.5 -82t6.5 -104v-598q0 -61 -6.5 -104t-20.5 -82q-25 -72 -71 -128.5t-105 -95.5t-131 -59t-148 -20q-78 0 -148.5 20t-130 59 t-105.5 95.5t-70 128.5q-14 39 -20.5 82t-6.5 104zM350 483q0 -88 23 -143q31 -72 94 -111t147 -39t147.5 39t94.5 111q23 55 23 143v570q0 88 -23 143q-31 72 -94.5 111t-147.5 39t-147.5 -39t-93.5 -111q-23 -55 -23 -143v-570z" />
<glyph unicode="1" horiz-adv-x="778" d="M45 1016v248l354 272h203v-1536h-215v1276l-338 -260h-4z" />
<glyph unicode="2" horiz-adv-x="1132" d="M111 0v82q0 125 30.5 219t79.5 169t112.5 134.5t131.5 112.5q57 45 117.5 94t109.5 103.5t80 115t31 129.5q0 92 -62.5 142.5t-167.5 50.5q-76 0 -131 -31t-84 -84q-23 -45 -22 -119v-35h-215v35q0 100 29 170q25 61 66.5 110.5t97 84.5t122 54t137.5 19q92 0 175 -27.5 t144.5 -78.5t97.5 -125t36 -166q0 -96 -35 -175t-89 -145.5t-121.5 -124t-133.5 -110.5q-45 -37 -97 -80t-97 -92t-76 -105.5t-35 -119.5h688v-207h-919z" />
<glyph unicode="3" horiz-adv-x="1163" d="M74 416h215q2 -111 73.5 -171.5t206.5 -60.5q121 0 200 73t79 202q0 53 -19.5 100t-59.5 82t-101.5 54.5t-147.5 19.5h-137v190h137q76 0 131.5 20.5t91 54.5t52 80t16.5 97q0 102 -68.5 151.5t-167.5 49.5q-127 0 -187 -65.5t-60 -155.5h-215q0 86 33.5 162.5t94 134 t145.5 90t189 32.5q94 0 176.5 -26.5t143.5 -78.5t96 -127t35 -169q0 -98 -50 -187t-155 -151q125 -59 184.5 -163.5t59.5 -215.5q0 -98 -38 -182t-105.5 -145.5t-157.5 -96t-195 -34.5q-115 0 -207 31.5t-156.5 90t-98 138t-33.5 176.5z" />
<glyph unicode="4" horiz-adv-x="1202" d="M70 395v195l573 966h295v-968h219v-193h-219v-395h-215v395h-653zM291 588h432v745h-4z" />
<glyph unicode="5" horiz-adv-x="1185" d="M131 449h217q0 -129 67.5 -194t180.5 -65q82 0 145.5 38t92.5 110q23 55 22 145v78q0 88 -14 131q-23 76 -81.5 113t-144.5 37t-152.5 -36t-98.5 -87l-211 2v815h835v-211h-620v-383q57 51 130.5 76.5t149.5 25.5q160 0 266.5 -76.5t141.5 -224.5q8 -35 12 -73.5t4 -94.5 v-104q0 -59 -7 -104t-19 -82q-49 -143 -172 -224t-279 -81q-98 0 -182 32.5t-147.5 94t-99.5 148.5t-36 194z" />
<glyph unicode="6" horiz-adv-x="1206" d="M133 485v582q0 61 6 104t21 82q25 72 70.5 128.5t104 95.5t129 59t144.5 20q94 0 175 -26.5t142.5 -75.5t99.5 -121.5t46 -165.5h-221q-16 92 -79.5 137.5t-168.5 45.5q-123 0 -187.5 -80t-64.5 -217v-201h2q31 39 69 67.5t81 46t88 25.5t86 8q141 0 247.5 -68.5 t147.5 -209.5q10 -35 15.5 -75t5.5 -97v-80q0 -55 -5.5 -94t-15.5 -74q-45 -152 -169 -236.5t-288 -84.5q-78 0 -148.5 20t-130 59t-105.5 95.5t-70 128.5q-14 39 -20.5 90t-6.5 112zM350 481q0 -88 23 -143q31 -72 94 -111t147 -39q86 0 149.5 41t92.5 119q18 49 18 133v45 q0 43 -4 75t-12 56q-25 72 -81 107t-142 35q-57 0 -108.5 -19.5t-90.5 -56.5t-62.5 -89t-23.5 -118v-35z" />
<glyph unicode="7" horiz-adv-x="1050" d="M57 1329v207h928v-195q-94 -176 -176 -347t-144.5 -338t-104.5 -330.5t-56 -325.5h-234q14 150 59.5 315.5t111 336.5t147.5 342t168 335h-699z" />
<glyph unicode="8" horiz-adv-x="1196" d="M96 438q0 111 62.5 215.5t191.5 163.5q-111 61 -163 150.5t-52 187.5q0 94 35 169t96.5 127t146.5 78.5t185 26.5t185 -26.5t146.5 -78.5t96.5 -127t35 -169q0 -98 -52.5 -187t-162.5 -151q129 -59 191.5 -163.5t62.5 -215.5q0 -98 -37 -182t-103.5 -145.5t-158.5 -96 t-203 -34.5t-203 34.5t-158.5 96t-103.5 145.5t-37 182zM313 451q0 -129 76 -200t209 -71t209 71t76 200q0 49 -17.5 95t-53.5 83t-89 58.5t-125 21.5t-126 -21.5t-89 -58.5t-52.5 -83t-17.5 -95zM350 1151q0 -47 16.5 -90t48 -76t78 -51.5t105.5 -18.5t105.5 18.5t78 51.5 t48 76t16.5 90q0 100 -68.5 157.5t-179.5 57.5t-179.5 -57.5t-68.5 -157.5z" />
<glyph unicode="9" horiz-adv-x="1206" d="M115 987v80q0 55 5 94t15 74q45 152 169 236.5t288 84.5q76 0 147.5 -20t131 -59t105.5 -95.5t71 -128.5q14 -39 20 -90t6 -112v-582q0 -61 -6 -104t-20 -82q-25 -72 -71 -128.5t-104.5 -95.5t-129 -59t-144.5 -20q-94 0 -175 26.5t-142.5 75.5t-99.5 121.5t-46 165.5 h221q16 -92 80 -137.5t168 -45.5q123 0 187.5 80t64.5 217v201h-2q-31 -41 -68.5 -68.5t-80.5 -45t-88.5 -25.5t-86.5 -8q-141 0 -247.5 68.5t-147.5 209.5q-10 35 -15 75t-5 97zM332 1010q0 -43 4 -75t12 -56q25 -72 81 -107t142 -35q57 0 108.5 19.5t90.5 56.5t62.5 89 t23.5 118v35q0 88 -22 143q-31 72 -94.5 111t-147.5 39q-86 0 -149.5 -41t-92.5 -119q-18 -49 -18 -133v-45z" />
<glyph unicode=":" horiz-adv-x="501" d="M121 0v268h258v-268h-258zM121 850v268h258v-268h-258z" />
<glyph unicode=";" horiz-adv-x="501" d="M102 -231q92 29 123 88t31 118q0 25 -23 25h-110v268h272v-223q0 -63 -14 -126.5t-48 -116t-90.5 -88.5t-140.5 -48v103zM125 850v268h258v-268h-258z" />
<glyph unicode="&#x3c;" d="M106 510v209l914 422v-197l-741 -330l741 -329v-197z" />
<glyph unicode="=" d="M96 309v180h934v-180h-934zM96 739v181h934v-181h-934z" />
<glyph unicode="&#x3e;" d="M106 88v197l742 329l-742 330v197l914 -422v-209z" />
<glyph unicode="?" horiz-adv-x="1013" d="M66 1102v37q0 92 32.5 168.5t91 132t138.5 86t172 30.5t171 -24.5t137 -71.5t92 -116.5t34 -159.5q0 -84 -31 -143.5t-75 -106.5t-95 -90t-92 -93.5t-64.5 -117t-13.5 -160.5h-192q-10 115 12.5 195t62 137t88 99t91.5 83t72.5 87t29.5 110q0 90 -64.5 133t-162.5 43 q-109 0 -170.5 -63.5t-61.5 -157.5v-37h-202zM348 0v260h250v-260h-250z" />
<glyph unicode="@" horiz-adv-x="1898" d="M131 461l29 270q23 211 96.5 363.5t184 251t249.5 144.5t295 46h47q156 0 292 -40t235.5 -128t154.5 -229.5t49 -345.5q-4 -139 -31.5 -273.5t-78.5 -238t-127 -165t-176 -55.5q-80 4 -134.5 49.5t-74.5 116.5q-61 -82 -137 -119.5t-150 -37.5q-80 0 -142.5 28.5 t-102.5 81.5t-55 130t-3 173l33 228q29 211 137 319.5t268 108.5q78 0 140.5 -35t99.5 -98l35 106h137l-105 -737q-6 -39 -7 -73t5 -58.5t23.5 -40t48.5 -19.5q61 -6 110.5 48.5t84 144.5t55 200.5t24.5 215.5q6 172 -40 290.5t-128.5 191.5t-196.5 105.5t-243 32.5h-47 q-129 0 -244.5 -39t-206 -122t-150.5 -212t-81 -309l-29 -270q-18 -164 18 -286t111.5 -201.5t185 -118.5t238.5 -39h41q66 0 131.5 8t126 23.5t111.5 35t88 41.5l45 -110q-47 -25 -106.5 -47.5t-127 -39t-138 -25.5t-140.5 -9h-41q-156 0 -290 46t-229 141t-142 239.5 t-25 341.5zM737 489q-16 -113 16.5 -177t127.5 -64q45 0 88 21.5t76.5 57t56 80t28.5 89.5l29 206q6 49 1 95.5t-25.5 82t-56.5 58.5t-87 23q-100 0 -153.5 -70t-69.5 -180z" />
<glyph unicode="A" horiz-adv-x="1220" d="M25 0l430 1536h311l430 -1536h-223l-125 467h-475l-125 -467h-223zM430 674h361l-179 647h-8z" />
<glyph unicode="B" horiz-adv-x="1243" d="M156 0v1536h440q139 0 223 -25q129 -41 204 -134t75 -240q0 -106 -50.5 -191.5t-138.5 -138.5q59 -25 104.5 -63.5t75 -87t44 -101.5t14.5 -109q0 -147 -76 -258.5t-211 -158.5q-41 -14 -90 -21.5t-127 -7.5h-487zM373 209h274q102 0 156 29q59 31 92 86t33 122 q0 74 -38 131.5t-108 86.5q-53 22 -145 22h-8h-256v-477zM373 895h235q51 0 82 6t55 17q59 27 98.5 81t39.5 131q0 70 -36 114t-99 67q-47 16 -138 16h-237v-432z" />
<glyph unicode="C" horiz-adv-x="1220" d="M133 506v524q0 74 9.5 130.5t27.5 103.5q29 70 77 125t107.5 92t128 56t140.5 19h16q72 0 141.5 -19t130 -56t107.5 -92.5t76 -124.5q35 -86 36 -215h-219q-2 47 -8 86t-20 69q-35 78 -103.5 111t-140.5 33h-16q-72 0 -140.5 -33t-103.5 -111q-16 -35 -22.5 -78t-6.5 -96 v-524q0 -53 6 -96t23 -78q35 -78 103.5 -110t140.5 -32h16q72 0 140.5 32t103.5 110q28 66 28 161v7h219q-2 -72 -11 -127.5t-25 -100.5q-29 -72 -76 -126t-107.5 -91t-130 -56t-141.5 -19h-16q-72 0 -140.5 19t-128 56t-107.5 91.5t-77 125.5q-18 47 -27.5 103.5 t-9.5 130.5z" />
<glyph unicode="D" horiz-adv-x="1265" d="M156 0v1536h467q174 0 293.5 -75t179.5 -216q37 -92 37 -235v-484q0 -143 -37 -235q-59 -141 -179 -216t-294 -75h-467zM373 211h250q104 0 166.5 32.5t97.5 110.5q28 61 28 165v7v484q0 109 -28 172q-35 78 -97.5 110.5t-166.5 32.5h-250v-1114z" />
<glyph unicode="E" horiz-adv-x="1136" d="M156 0v1536h899v-211h-682v-432h563v-211h-563v-471h682v-211h-899z" />
<glyph unicode="F" d="M156 0v1536h899v-211h-682v-432h563v-211h-563v-682h-217z" />
<glyph unicode="G" horiz-adv-x="1267" d="M133 506v524q0 74 9.5 130.5t27.5 103.5q29 70 77 125t107.5 92t128 56t140.5 19h16q72 0 142.5 -19t131 -56t107.5 -91.5t74 -125.5q31 -84 36 -197h-221q-6 82 -28 135q-35 78 -102.5 112t-139.5 34h-16q-72 0 -140.5 -33t-103.5 -111q-16 -35 -22.5 -78t-6.5 -96v-524 q0 -106 31 -174q35 -78 102.5 -111t139.5 -33h16q51 0 101.5 16.5t89 54.5t62 101.5t23.5 157.5v53h-284v205h497v-776h-104l-51 154q-61 -86 -151.5 -130t-194.5 -44h-15q-143 0 -264 74.5t-178 217.5q-18 47 -27.5 103.5t-9.5 130.5z" />
<glyph unicode="H" horiz-adv-x="1329" d="M156 0v1536h217v-631h583v631h218v-1536h-218v694h-583v-694h-217z" />
<glyph unicode="I" horiz-adv-x="528" d="M156 0v1536h217v-1536h-217z" />
<glyph unicode="J" horiz-adv-x="1116" d="M92 465v90h217v-100q0 -47 10.5 -88t26.5 -70q29 -51 77 -80t107 -29t107.5 29t77.5 80q16 29 26.5 71t10.5 89v1079h217v-1069q0 -72 -11.5 -130t-31.5 -106q-51 -117 -152.5 -184t-243.5 -67q-141 0 -242.5 67.5t-152.5 183.5q-20 47 -31.5 104.5t-11.5 129.5z" />
<glyph unicode="K" horiz-adv-x="1284" d="M156 0v1536h217v-717l2 -2q10 12 22 29q10 12 23.5 28.5t25.5 32.5l517 629h266l-486 -580l527 -956h-254l-426 782l-217 -270v-512h-217z" />
<glyph unicode="L" horiz-adv-x="1120" d="M156 0v1536h217v-1325h686v-211h-903z" />
<glyph unicode="M" horiz-adv-x="1597" d="M156 0v1536h260l383 -942l383 942h260v-1536h-209v1040v78q0 20 2 41h-2l-350 -860h-168l-350 860h-3v-41q0 -16 1.5 -37.5t1.5 -40.5v-1040h-209z" />
<glyph unicode="N" horiz-adv-x="1327" d="M156 0v1536h258l549 -1165h2q-2 20 -2 41v77v1047h208v-1536h-260l-546 1165h-3v-41q0 -16 1.5 -37.5t1.5 -39.5v-1047h-209z" />
<glyph unicode="O" horiz-adv-x="1261" d="M133 506v524q0 74 9.5 130.5t27.5 103.5q29 70 77 125t107.5 92t128 56t140.5 19h16q72 0 140.5 -19t128 -56t107.5 -92.5t77 -124.5q18 -47 27 -103.5t9 -130.5v-524q0 -74 -9 -130.5t-27 -103.5q-29 -72 -77 -126t-107.5 -91t-128 -56t-140.5 -19h-16q-72 0 -140.5 19 t-128 56t-107.5 91.5t-77 125.5q-18 47 -27.5 103.5t-9.5 130.5zM350 506q0 -53 6 -97t23 -79q35 -78 103.5 -110t140.5 -32h16q72 0 140.5 32t103.5 110q16 35 22 79t6 97v524q0 53 -6 97t-22 79q-35 78 -103.5 110t-140.5 32h-16q-72 0 -140.5 -32t-103.5 -110 q-16 -35 -22.5 -79t-6.5 -97v-524z" />
<glyph unicode="P" horiz-adv-x="1234" d="M156 0v1536h467q78 0 130 -7t93 -24q135 -49 213 -165.5t78 -276.5q0 -158 -78 -272.5t-213 -163.5q-41 -16 -91 -23.5t-132 -7.5h-250v-596h-217zM373 807h245q72 0 111 9t68 26q57 33 90 91t33 130q0 76 -33 135t-90 92q-29 16 -68 25.5t-111 9.5h-245v-518z" />
<glyph unicode="Q" horiz-adv-x="1261" d="M133 506v524q0 74 9.5 130.5t27.5 103.5q29 70 77 125t107.5 92t128 56t140.5 19h16q72 0 140.5 -19t128 -56t107.5 -92.5t77 -124.5q18 -47 27 -103.5t9 -130.5v-524q0 -74 -9 -130.5t-27 -103.5q-27 -61 -67 -111t-89 -85q61 -23 142 -35t192 -16v-195q-96 2 -176 12.5 t-146.5 28.5t-124 46t-108.5 67q-16 -2 -36 -3t-40 -1h-16q-72 0 -140.5 19t-128 56t-107.5 91.5t-77 125.5q-18 47 -27.5 103.5t-9.5 130.5zM350 506q0 -53 6 -97t23 -79q35 -78 103.5 -110t140.5 -32h16q72 0 140.5 32t103.5 110q16 35 22 79t6 97v524q0 53 -6 97t-22 79 q-35 78 -103.5 110t-140.5 32h-16q-72 0 -140.5 -32t-103.5 -110q-16 -35 -22.5 -79t-6.5 -97v-524z" />
<glyph unicode="R" horiz-adv-x="1241" d="M156 0v1536h434q102 0 180 -16q152 -35 241 -132.5t89 -259.5q0 -115 -59.5 -204.5t-174.5 -143.5v-2q100 -35 152.5 -103.5t62.5 -187.5l23 -286q4 -59 23.5 -111.5t62.5 -85.5v-4h-238q-29 31 -43 82t-18 102l-25 281q-10 111 -73.5 152.5t-180.5 41.5h-239v-659h-217z M373 868h219q141 0 216 70t75 180q0 82 -43 130t-121 67q-53 12 -137 12h-209v-459z" />
<glyph unicode="S" horiz-adv-x="1196" d="M88 444h221q2 -53 24.5 -101t60.5 -85t89.5 -58.5t112.5 -21.5q123 0 202 62.5t79 179.5q0 55 -21.5 94t-55.5 67.5t-78 49t-89 37.5l-137 49q-72 27 -138.5 58.5t-117 79.5t-80 120t-29.5 180q0 96 36 171t99.5 126t150.5 77.5t187 26.5q104 0 193.5 -28.5t153 -86 t97.5 -143.5q31 -77 31 -175v-23h-219q0 51 -15.5 97t-47 82t-80.5 57.5t-119 21.5q-76 0 -124 -18.5t-76.5 -48t-40 -66.5t-11.5 -74q0 -49 17.5 -85t45 -62.5t63.5 -46t75 -31.5l139 -47q82 -29 157 -68t130 -94t88 -130t33 -175t-37 -180t-103.5 -136.5t-155.5 -86 t-194 -29.5q-121 0 -216 36.5t-160.5 99t-101.5 147.5t-38 181z" />
<glyph unicode="T" horiz-adv-x="1146" d="M45 1325v211h1057v-211h-420v-1325h-217v1325h-420z" />
<glyph unicode="U" horiz-adv-x="1290" d="M147 506v1030h218v-1030q0 -53 6 -97t22 -79q35 -78 103.5 -110t140.5 -32h16q72 0 140.5 32t103.5 110q16 35 22.5 79t6.5 97v1030h217v-1030q0 -74 -9.5 -130.5t-27.5 -103.5q-29 -72 -77 -126t-107.5 -91t-128 -56t-140.5 -19h-16q-72 0 -140.5 19t-128 56 t-107.5 91.5t-77 125.5q-18 47 -27.5 103.5t-9.5 130.5z" />
<glyph unicode="V" horiz-adv-x="1212" d="M25 1536h227l350 -1292h4l355 1292h227l-438 -1536h-287z" />
<glyph unicode="W" horiz-adv-x="1802" d="M53 1536h230l225 -1262h4l262 1262h252l262 -1262h4l226 1262h231l-311 -1536h-285l-252 1165h-4l-248 -1165h-287z" />
<glyph unicode="X" horiz-adv-x="1196" d="M18 0l457 799l-409 737h249l283 -535l283 535h249l-409 -737l457 -799h-248l-332 594l-332 -594h-248z" />
<glyph unicode="Y" horiz-adv-x="1191" d="M6 1536h246l342 -637h4l342 637h246l-481 -872v-664h-218v664z" />
<glyph unicode="Z" horiz-adv-x="1200" d="M92 0v193l729 1132h-700v211h971v-190l-736 -1135h748v-211h-1012z" />
<glyph unicode="[" horiz-adv-x="765" d="M174 -389v2148h561v-149h-356v-1850h356v-149h-561z" />
<glyph unicode="\" horiz-adv-x="868" d="M37 1647h196l598 -1805h-198z" />
<glyph unicode="]" horiz-adv-x="765" d="M31 -240h356v1850h-356v149h561v-2148h-561v149z" />
<glyph unicode="^" horiz-adv-x="974" d="M61 819l336 737h181l335 -737h-194l-232 537l-231 -537h-195z" />
<glyph unicode="_" horiz-adv-x="913" d="M0 -129h913v-152h-913v152z" />
<glyph unicode="`" horiz-adv-x="1159" d="M207 1714h258l242 -368h-146z" />
<glyph unicode="a" horiz-adv-x="1105" d="M102 360q0 80 28 146.5t80 114t128 74t172 26.5h248v55q0 205 -203 205q-86 0 -130 -35t-65 -94h-213q29 143 132.5 229t277.5 86q211 0 308.5 -105.5t97.5 -303.5v-758h-146l-24 147h-2q-53 -78 -129 -122.5t-179 -44.5q-172 0 -276.5 100t-104.5 280zM307 362 q0 -90 50.5 -143t154.5 -53q51 0 96 24.5t79 61.5t52.5 81t18.5 85v125h-246q-92 0 -148.5 -47.5t-56.5 -133.5z" />
<glyph unicode="b" horiz-adv-x="1155" d="M150 0v1608h204v-469q0 -20 -1 -41t-1 -37v-41h2q47 66 118 106.5t173 40.5q143 0 241.5 -76.5t135.5 -216.5q10 -37 15 -88t5 -98v-213q0 -53 -4 -101t-14 -85q-39 -154 -143.5 -231.5t-245.5 -77.5q-94 0 -176 41.5t-133 113.5h-2l-21 -135h-153zM354 487 q0 -74 17 -127q25 -78 83 -131t150 -53q86 0 139.5 42t75.5 114q10 27 14.5 59.5t4.5 81.5v209q0 49 -5.5 85t-15.5 64q-47 139 -203 140q-78 0 -139 -48.5t-94 -115.5q-12 -27 -19.5 -58.5t-7.5 -82.5v-179z" />
<glyph unicode="c" horiz-adv-x="1071" d="M113 469v209q0 66 8 119t22 94q45 131 151.5 203.5t254.5 72.5q147 0 254.5 -70.5t152.5 -201.5q16 -51 27 -129h-209q-6 43 -18 74q-27 66 -80 98.5t-127 32.5t-127 -35t-80 -100q-25 -59 -25 -162v-201q0 -104 25 -162q27 -66 80 -100.5t127 -34.5t127 32.5t80 98.5 q10 25 16 53h209q-10 -63 -25 -108q-45 -131 -152.5 -201.5t-254.5 -70.5t-254 72.5t-152 203.5q-14 41 -22 94t-8 119z" />
<glyph unicode="d" horiz-adv-x="1155" d="M113 459v213q0 53 4 101t14 85q39 154 143.5 231.5t245.5 77.5q84 0 158 -32.5t123 -85.5h2q-2 20 -2 41v77v441h205v-1608h-154l-27 150h-2q-51 -78 -128 -124t-185 -46q-143 0 -241.5 76.5t-135.5 215.5q-10 37 -15 88.5t-5 98.5zM317 465q0 -49 5.5 -85t15.5 -65 q47 -139 203 -139q78 0 139 48t94 116q12 27 19.5 58.5t7.5 82.5v178q0 74 -17 127q-25 78 -83 131.5t-150 53.5q-86 0 -139.5 -42t-75.5 -114q-10 -27 -14.5 -59.5t-4.5 -81.5v-209z" />
<glyph unicode="e" horiz-adv-x="1097" d="M113 469v209q0 66 8 119t22 94q45 131 153 203.5t255 72.5t253.5 -72.5t151.5 -203.5q14 -41 22.5 -94.5t8.5 -118.5v-152h-670v-69q0 -133 61.5 -212t170.5 -79q82 0 140.5 45t82.5 129h211q-35 -176 -152.5 -268t-281.5 -92q-147 0 -254 72.5t-152 203.5q-14 41 -22 94 t-8 119zM317 711h467q-2 82 -24 135q-27 66 -81 100.5t-128 34.5t-128 -34.5t-81 -100.5q-23 -53 -25 -135z" />
<glyph unicode="f" horiz-adv-x="739" d="M41 950v197h182v67q0 217 110.5 316.5t293.5 99.5q31 0 60.5 -2t41.5 -4v-197q-20 4 -43.5 5.5t-44.5 1.5q-111 0 -162 -46.5t-51 -175.5v-65h270v-197h-272v-41q0 -16 1 -37.5t1 -40.5v-831h-205v950h-182z" />
<glyph unicode="g" horiz-adv-x="1155" d="M113 479v193q0 53 4 101t14 85q39 154 143.5 231.5t245.5 77.5q94 0 176 -42t133 -113h2l21 135h154v-1145q0 -66 -8.5 -119t-22.5 -94q-45 -131 -152.5 -203.5t-255.5 -72.5q-166 0 -283.5 87t-152.5 261h215q27 -84 83 -120t140 -36q74 0 127.5 36t79.5 101 q25 57 25 162v25v77q0 20 2 41h-2q-47 -66 -118 -106.5t-173 -40.5q-143 0 -241.5 77t-135.5 216q-10 37 -15 88t-5 98zM317 485q0 -49 5.5 -84.5t15.5 -64.5q47 -139 203 -139q78 0 139 48t94 115q12 27 19.5 59t7.5 83v157q0 74 -17 127q-25 78 -83 131.5t-150 53.5 q-86 0 -139.5 -42t-75.5 -114q-10 -27 -14.5 -59.5t-4.5 -81.5v-189z" />
<glyph unicode="h" horiz-adv-x="1185" d="M150 0v1608h204v-469q0 -20 -1 -41t-1 -37v-41h2q47 66 122 106.5t177 40.5q143 0 237.5 -76.5t131.5 -216.5q10 -37 15 -88t5 -98v-688h-204v682q0 49 -5.5 85t-15.5 64q-47 139 -203 140q-78 0 -139 -48.5t-94 -115.5q-12 -27 -19.5 -58.5t-7.5 -82.5v-666h-204z" />
<glyph unicode="i" horiz-adv-x="503" d="M143 1325v231h217v-231h-217zM150 0v1147h204v-1147h-204z" />
<glyph unicode="j" horiz-adv-x="522" d="M-123 -285q18 -2 40 -3t38 -1q111 0 162 46t51 175v1215h205v-1217q0 -109 -29 -187.5t-82 -129.5t-128 -74.5t-165 -23.5q-27 0 -51 1t-41 3v196zM162 1325v231h217v-231h-217z" />
<glyph unicode="k" horiz-adv-x="1077" d="M150 0v1608h204v-903l416 442h266l-407 -414l432 -733h-246l-332 580l-129 -136v-444h-204z" />
<glyph unicode="l" horiz-adv-x="503" d="M150 0v1608h204v-1608h-204z" />
<glyph unicode="m" horiz-adv-x="1742" d="M150 0v1147h149l25 -121h2q47 68 114.5 104.5t159.5 36.5q111 0 184.5 -49t124.5 -135q47 78 125 131t187 53q147 0 237 -75.5t123 -208.5q18 -78 18 -191v-692h-204v686q0 45 -3 83t-12 67q-18 66 -60 100.5t-114 34.5q-47 0 -88 -22.5t-72.5 -60.5t-50 -88t-18.5 -106 v-694h-203v705q0 127 -43 196.5t-147 69.5q-47 0 -88 -22.5t-73 -60.5t-50.5 -88t-18.5 -106v-694h-204z" />
<glyph unicode="n" horiz-adv-x="1185" d="M150 0v1147h153l27 -150h2q51 78 128.5 124t192.5 46q143 0 237.5 -76.5t131.5 -216.5q10 -37 15 -88t5 -98v-688h-204v682q0 49 -5.5 85t-15.5 64q-47 139 -203 140q-78 0 -139 -48.5t-94 -115.5q-12 -27 -19.5 -58.5t-7.5 -82.5v-666h-204z" />
<glyph unicode="o" horiz-adv-x="1097" d="M113 469v209q0 66 8 119t22 94q45 131 151.5 203.5t254.5 72.5q147 0 253.5 -72.5t151.5 -203.5q14 -41 22.5 -94.5t8.5 -118.5v-209q0 -66 -8 -119t-23 -94q-45 -131 -151.5 -203.5t-253.5 -72.5t-254 72.5t-152 203.5q-14 41 -22 94t-8 119zM317 473q0 -104 25 -162 q27 -66 80 -100.5t127 -34.5t127 35t80 100q24 55 24 154v8v201q0 102 -24 162q-27 66 -80 100.5t-127 34.5t-127 -35t-80 -100q-25 -59 -25 -162v-201z" />
<glyph unicode="p" horiz-adv-x="1155" d="M150 -500v1647h153l27 -150h2q51 78 128 124t185 46q143 0 241.5 -76.5t135.5 -216.5q10 -37 15 -88t5 -98v-213q0 -53 -4 -101t-14 -85q-39 -154 -143.5 -231.5t-245.5 -77.5q-84 0 -158 32.5t-123 85.5h-2v-41q0 -16 1 -37.5t1 -39.5v-480h-204zM354 487q0 -74 17 -127 q25 -78 83 -131t150 -53q86 0 139.5 42t75.5 114q10 27 14.5 59.5t4.5 81.5v209q0 49 -5.5 85t-15.5 64q-47 139 -203 140q-78 0 -139 -48.5t-94 -115.5q-12 -27 -19.5 -58.5t-7.5 -82.5v-179z" />
<glyph unicode="q" horiz-adv-x="1155" d="M113 459v213q0 53 4 101t14 85q39 154 143.5 231.5t245.5 77.5q94 0 176 -42t133 -113h2l21 135h154v-1647h-205v508v78q0 20 2 41h-2q-47 -66 -118 -106.5t-173 -40.5q-143 0 -241.5 76.5t-135.5 215.5q-10 37 -15 88.5t-5 98.5zM317 465q0 -49 5.5 -85t15.5 -65 q47 -139 203 -139q78 0 139 48t94 116q12 27 19.5 58.5t7.5 82.5v178q0 74 -17 127q-25 78 -83 131.5t-150 53.5q-86 0 -139.5 -42t-75.5 -114q-10 -27 -14.5 -59.5t-4.5 -81.5v-209z" />
<glyph unicode="r" horiz-adv-x="854" d="M150 0v1147h151l29 -166h2q55 94 132 140t187 46q41 0 83 -6t77 -16l-6 -209q-41 16 -82 24.5t-88 8.5q-59 0 -110.5 -23.5t-89.5 -64.5t-59.5 -98.5t-21.5 -127.5v-655h-204z" />
<glyph unicode="s" horiz-adv-x="1001" d="M78 340h209q47 -176 229 -176q88 0 140.5 42t54.5 113q0 39 -13.5 67t-43 48.5t-77.5 38t-116 33.5q-119 29 -187.5 72t-102.5 90t-43 93t-9 83q0 74 27.5 133t78.5 102t120 65.5t153 22.5q160 0 269.5 -77.5t131.5 -243.5h-209q-41 141 -192 141q-78 0 -128.5 -39 t-50.5 -100t46.5 -96t169.5 -64q78 -18 147.5 -45t121.5 -67.5t81.5 -101t29.5 -146.5q0 -82 -30.5 -146.5t-83.5 -109.5t-125 -68.5t-156 -23.5q-182 0 -299 92t-143 268z" />
<glyph unicode="t" horiz-adv-x="772" d="M41 950v197h182v287h205v-287h270v-197h-270v-516q0 -90 12 -135q16 -61 59.5 -85t121.5 -24h34.5t44.5 5l-2 -195q-43 -6 -77 -6q-166 0 -260.5 64.5t-122.5 205.5q-8 35 -11.5 78t-3.5 94v514h-182z" />
<glyph unicode="u" horiz-adv-x="1181" d="M143 459v688h205v-682q0 -49 5 -85t16 -65q47 -139 200 -139q78 0 138.5 48t93.5 116q12 27 19 58.5t7 82.5v666h205v-1147h-153l-27 150h-2q-51 -78 -128 -124t-192 -46q-143 0 -236 76.5t-130 215.5q-10 37 -15.5 88.5t-5.5 98.5z" />
<glyph unicode="v" horiz-adv-x="1024" d="M18 1147h218l274 -899h4l274 899h218l-383 -1147h-222z" />
<glyph unicode="w" horiz-adv-x="1548" d="M35 1147h217l201 -846h4l223 846h186l224 -844h4l200 844h219l-303 -1147h-217l-217 809h-4l-217 -809h-219z" />
<glyph unicode="x" horiz-adv-x="1060" d="M25 0l395 602l-363 545h236l237 -373l236 373h240l-365 -545l395 -602h-233l-273 428l-272 -428h-233z" />
<glyph unicode="y" horiz-adv-x="1040" d="M18 -225q35 -8 67 -14.5t73 -6.5q84 0 127 46t71 120l62 164l-395 1063h219l282 -807h4l277 807h217l-479 -1305q-53 -147 -142.5 -215.5t-218.5 -68.5q-90 0 -164 22v195z" />
<glyph unicode="z" horiz-adv-x="1019" d="M72 0v174l583 776h-563v197h819v-176l-581 -774h618v-197h-876z" />
<glyph unicode="{" horiz-adv-x="868" d="M66 598v170h55q51 0 92 11.5t67.5 42t35 86t-4.5 143.5l-39 276q-16 123 8.5 205t83 133t146.5 72.5t199 21.5h135v-149h-115q-53 0 -103.5 -11.5t-87 -42t-55 -86t-4.5 -143.5l37 -235q10 -72 8 -135.5t-23.5 -117t-64.5 -93t-112 -64.5q70 -23 112.5 -63.5t64 -94 t23.5 -117t-8 -133.5l-37 -231q-14 -88 4.5 -143.5t55 -86t87 -42t103.5 -11.5h115v-149h-135q-111 0 -199 21.5t-146.5 72.5t-84 133t-7.5 205l39 272q12 88 4 143.5t-34.5 86t-67.5 42t-92 11.5h-55z" />
<glyph unicode="|" horiz-adv-x="643" d="M225 -389v2148h193v-2148h-193z" />
<glyph unicode="}" horiz-adv-x="868" d="M25 -240h114q51 0 102.5 11.5t88.5 42t55 86t4 143.5l-37 231q-10 70 -8 133.5t23.5 117t63.5 94t114 63.5q-72 25 -114 64.5t-63.5 93t-23.5 117t8 135.5l37 235q14 88 -4 143.5t-55 86t-88.5 42t-102.5 11.5h-114v149h135q111 0 198.5 -21.5t146 -72.5t83 -133 t8.5 -205l-39 -276q-12 -88 -3 -143.5t34.5 -86t65.5 -42t94 -11.5h55v-170h-55q-53 0 -93.5 -11.5t-67 -42t-34.5 -86t4 -143.5l39 -272q18 -123 -7.5 -205t-84 -133t-146.5 -72.5t-198 -21.5h-135v149z" />
<glyph unicode="~" horiz-adv-x="1112" d="M86 680q10 152 73.5 234.5t178.5 93.5q53 4 107.5 -17.5t113.5 -62.5q76 -55 120 -80t93 -23q41 2 65.5 34t32.5 116h156q-10 -150 -73.5 -233t-178.5 -93q-53 -4 -107.5 17.5t-113.5 62.5q-39 27 -67.5 47.5t-53 32.5t-46 17t-46.5 5q-41 -4 -64.5 -34.5t-33.5 -116.5 h-156z" />
<glyph unicode="&#xa1;" horiz-adv-x="520" d="M135 887v260h250v-260h-250zM141 -389l29 1063h180l29 -1063h-238z" />
<glyph unicode="&#xa2;" horiz-adv-x="1077" d="M113 547v217q0 125 30 209q41 121 135.5 191.5t223.5 82.5v189h102v-189q156 -16 259.5 -110.5t123.5 -268.5h-205q-16 78 -61 124t-117 59v-791q68 10 114 50t64 112h203q-27 -164 -128 -254t-253 -105v-206h-102v206q-129 10 -223.5 82t-135.5 193q-31 82 -30 209z M313 553q0 -103 25 -160q43 -117 164 -135v793q-119 -18 -164 -133q-25 -59 -25 -160v-205z" />
<glyph unicode="&#xa3;" d="M18 698v140h166v260q0 109 33 193.5t89 144t134 90t168 30.5q86 0 161 -27.5t131 -80.5t90 -132t38 -179h-205q-12 113 -68.5 171t-146.5 58q-100 0 -159.5 -68.5t-59.5 -199.5v-260h393v-140h-393v-268q0 -115 -26.5 -165t-65.5 -70v-5h410q39 0 70.5 5.5t55 24t38 54 t18.5 97.5h190q-4 -115 -29.5 -186.5t-72.5 -112.5t-113.5 -56.5t-152.5 -15.5h-658v190q72 0 101.5 51.5t29.5 174.5v282h-166z" />
<glyph unicode="&#xa5;" d="M4 1536h232l327 -582l328 582h231l-405 -682h356v-139h-407v-199h407v-139h-407v-377h-205v377h-408v139h408v199h-408v139h357z" />
<glyph unicode="&#xa6;" horiz-adv-x="643" d="M225 -389v919h193v-919h-193zM225 840v919h193v-919h-193z" />
<glyph unicode="&#xa7;" horiz-adv-x="1075" d="M102 657q0 92 57.5 168t164.5 111q-61 33 -97.5 70.5t-54.5 74.5t-23.5 71t-5.5 60q0 74 28 133.5t79 102.5t119.5 65.5t152.5 22.5q160 0 268.5 -79t129.5 -234h-201q-20 70 -68.5 105.5t-134.5 35.5t-133 -43t-47 -104q0 -68 52 -114t173 -81l62 -18q160 -47 255 -130 t95 -223q0 -88 -50.5 -166.5t-136.5 -113.5q78 -47 116 -116t38 -151t-30.5 -146t-84 -109.5t-125 -69t-155.5 -23.5q-182 0 -298 90.5t-141 255.5h201q47 -176 234 -176q92 0 144 49.5t54 120.5q2 80 -56 128t-177 81l-53 14q-115 31 -183.5 74t-105.5 90t-49.5 92 t-12.5 82zM301 684q-2 -63 42 -111.5t146 -78.5l132 -39q74 10 117.5 60t45.5 116q2 63 -43 112.5t-143 79.5l-111 35q-37 -4 -70.5 -19.5t-59 -39t-41 -53t-15.5 -62.5z" />
<glyph unicode="&#xa8;" horiz-adv-x="1024" d="M201 1380v228h215v-228h-215zM608 1380v228h215v-228h-215z" />
<glyph unicode="&#xa9;" horiz-adv-x="1757" d="M123 768q0 164 54 307.5t152.5 251t238 168.5t311.5 61t311 -61t237.5 -168.5t152.5 -251t54 -307.5t-54 -307.5t-152.5 -251t-237.5 -168.5t-311 -61t-311.5 61t-238 168.5t-152.5 251t-54 307.5zM227 768q0 -141 46 -267t130 -219.5t205 -147.5t271 -54t270.5 54 t204.5 147.5t130 219.5t46 267t-46 267t-130 219.5t-205 147.5t-270 54q-150 0 -271 -54t-205 -147.5t-130 -219.5t-46 -267zM549 629v282q0 49 6 86t18 68q39 96 122 147.5t182 51.5h14q49 0 95 -13.5t87 -39t72 -62.5t49 -84q23 -55 25 -150h-160q-4 68 -19 105 q-20 47 -62 68.5t-87 21.5h-14q-45 0 -86 -21.5t-64 -68.5q-10 -23 -14 -49.5t-4 -59.5v-282q0 -33 4 -59.5t14 -49.5q23 -47 63.5 -68.5t86.5 -21.5h14q45 0 87 21.5t62 68.5q18 43 19 113h160q-2 -102 -25 -158q-35 -96 -121 -147.5t-182 -51.5h-14q-98 0 -181.5 51.5 t-122.5 145.5q-25 61 -24 156z" />
<glyph unicode="&#xaa;" horiz-adv-x="704" d="M82 1073q0 96 63.5 155.5t176.5 59.5h157v33q0 125 -121 125q-51 0 -78.5 -21.5t-39.5 -56.5h-129q16 86 79.5 137t167.5 51q127 0 187.5 -63t60.5 -182v-455h-92l-14 84q-33 -45 -76 -70.5t-105 -25.5q-113 0 -175 59.5t-62 169.5zM209 1073q0 -53 29.5 -85t93.5 -32 q31 0 58.5 14.5t47 37t30.5 48t11 50.5v76h-149q-49 0 -85 -29t-36 -80z" />
<glyph unicode="&#xab;" horiz-adv-x="1085" d="M57 668l475 510v-228l-264 -282l264 -283v-227zM508 668l475 510v-228l-264 -282l264 -283v-227z" />
<glyph unicode="&#xac;" horiz-adv-x="1187" d="M82 0v1536h1024v-1536h-1024zM184 190l351 576l-351 575v-1151zM246 1434l348 -572l348 572h-696zM248 102h690l-344 566zM653 766l351 -576v1151z" />
<glyph unicode="&#xad;" horiz-adv-x="913" d="M82 709v180h749v-180h-749z" />
<glyph unicode="&#xae;" horiz-adv-x="1003" d="M98 1194q0 86 30 161t83 131t127 89t164 33q88 0 162.5 -33t128 -89t83 -131t29.5 -161t-29.5 -161t-83 -131t-128 -89t-162.5 -33q-90 0 -164 33t-127 89t-83 131t-30 161zM160 1194q0 -74 24.5 -138.5t69.5 -112.5t107.5 -76.5t140.5 -28.5q76 0 139.5 28.5t108.5 76.5 t69.5 112.5t24.5 138.5t-24.5 138.5t-69.5 112.5t-108.5 76.5t-139.5 28.5q-78 0 -140.5 -28.5t-107.5 -76.5t-69.5 -112.5t-24.5 -138.5zM352 961v477h162q72 0 120 -34t48 -101q0 -104 -94 -134l110 -208h-90l-98 196h-78v-196h-80zM430 1229h92q31 0 53.5 18.5t22.5 55.5 q0 35 -23.5 49t-60.5 14h-84v-137z" />
<glyph unicode="&#xaf;" horiz-adv-x="1024" d="M195 1382v134h634v-134h-634z" />
<glyph unicode="&#xb0;" horiz-adv-x="628" d="M82 1325q0 49 18.5 91t49 74t72.5 50.5t91 18.5t91 -18.5t74 -50.5t50.5 -74t18.5 -91t-18.5 -91t-50.5 -73t-74 -49t-91 -18t-91 18t-72.5 49t-49 73t-18.5 91zM178 1325q0 -59 39 -99t96 -40t97.5 40t40.5 99t-40 100t-98 41q-57 0 -96 -41t-39 -100z" />
<glyph unicode="&#xb1;" d="M25 0v180h1077v-180h-1077zM25 791v180h446v463h184v-463h447v-180h-447v-463h-184v463h-446z" />
<glyph unicode="&#xb2;" horiz-adv-x="1187" d="M82 0v1536h1024v-1536h-1024zM184 190l351 576l-351 575v-1151zM246 1434l348 -572l348 572h-696zM248 102h690l-344 566zM653 766l351 -576v1151z" />
<glyph unicode="&#xb3;" horiz-adv-x="1187" d="M82 0v1536h1024v-1536h-1024zM184 190l351 576l-351 575v-1151zM246 1434l348 -572l348 572h-696zM248 102h690l-344 566zM653 766l351 -576v1151z" />
<glyph unicode="&#xb4;" horiz-adv-x="1024" d="M317 1346l242 368h258l-354 -368h-146z" />
<glyph unicode="&#xb5;" horiz-adv-x="1191" d="M150 -500v1647h204v-696q0 -125 55.5 -199t165.5 -74q53 0 101.5 24.5t84.5 63.5t56.5 88t20.5 99v694h204v-1147h-153l-33 147q-53 -78 -126 -122.5t-169 -44.5q-53 0 -107.5 18t-99.5 59h-6q0 -27 2 -51q2 -23 3 -48.5t1 -47.5v-410h-204z" />
<glyph unicode="&#xb6;" horiz-adv-x="1232" d="M113 1141q0 82 30.5 153.5t84 126t125 85t153.5 30.5h559v-1894h-152v1765h-223v-1765h-155v1108h-29q-82 0 -153.5 30.5t-125 84t-84 125t-30.5 151.5z" />
<glyph unicode="&#xb7;" horiz-adv-x="466" d="M104 676v268h258v-268h-258z" />
<glyph unicode="&#xb8;" horiz-adv-x="1024" d="M324 -309h108q27 -84 125 -84q47 0 74.5 26.5t27.5 65.5q0 41 -29.5 67.5t-103.5 47.5l-51 14q-51 12 -35 63l58 162l88 -14l-39 -139q45 -10 85 -26.5t70.5 -41.5t48 -56.5t17.5 -72.5q0 -86 -59.5 -138t-149.5 -52q-98 0 -160.5 50t-74.5 128z" />
<glyph unicode="&#xb9;" horiz-adv-x="1187" d="M82 0v1536h1024v-1536h-1024zM184 190l351 576l-351 575v-1151zM246 1434l348 -572l348 572h-696zM248 102h690l-344 566zM653 766l351 -576v1151z" />
<glyph unicode="&#xba;" horiz-adv-x="706" d="M86 1124v152q0 63 20.5 115.5t56.5 89.5t84 56t105 19t106.5 -19t85.5 -56t56.5 -89.5t20.5 -115.5v-152q0 -66 -20.5 -117t-56.5 -87.5t-85 -56t-107 -19.5q-57 0 -105 19.5t-84 56t-56.5 88t-20.5 116.5zM213 1128q0 -78 37 -121.5t102 -43.5q66 0 104 44t38 121v144 q0 78 -38 122t-104 44t-102.5 -44t-36.5 -122v-144z" />
<glyph unicode="&#xbb;" horiz-adv-x="1085" d="M102 158v227l265 283l-265 282v228l476 -510zM553 158v227l264 283l-264 282v228l475 -510z" />
<glyph unicode="&#xbc;" horiz-adv-x="1187" d="M82 0v1536h1024v-1536h-1024zM184 190l351 576l-351 575v-1151zM246 1434l348 -572l348 572h-696zM248 102h690l-344 566zM653 766l351 -576v1151z" />
<glyph unicode="&#xbd;" horiz-adv-x="1187" d="M82 0v1536h1024v-1536h-1024zM184 190l351 576l-351 575v-1151zM246 1434l348 -572l348 572h-696zM248 102h690l-344 566zM653 766l351 -576v1151z" />
<glyph unicode="&#xbe;" horiz-adv-x="1187" d="M82 0v1536h1024v-1536h-1024zM184 190l351 576l-351 575v-1151zM246 1434l348 -572l348 572h-696zM248 102h690l-344 566zM653 766l351 -576v1151z" />
<glyph unicode="&#xbf;" horiz-adv-x="1019" d="M78 -37q0 84 30.5 143.5t74.5 106.5t95.5 90t92.5 93t64.5 117t13.5 161h192q10 -115 -12.5 -195t-62.5 -137t-88 -99t-91 -83t-72.5 -87t-29.5 -110q0 -90 64.5 -133t162.5 -43q109 0 170 63.5t61 157.5v37h203v-37q0 -92 -32.5 -169t-91 -132t-138.5 -86t-172 -31 t-171 25t-137.5 72t-92 116.5t-33.5 159.5zM414 887v260h250v-260h-250z" />
<glyph unicode="&#xc0;" horiz-adv-x="1220" d="M25 0l430 1536h311l430 -1536h-223l-125 467h-475l-125 -467h-223zM275 2021h258l242 -368h-146zM430 674h361l-179 647h-8z" />
<glyph unicode="&#xc1;" horiz-adv-x="1212" d="M25 0l430 1536h311l430 -1536h-223l-125 467h-475l-125 -467h-223zM417 1653l242 368h258l-354 -368h-146zM430 674h361l-179 647h-8z" />
<glyph unicode="&#xc2;" horiz-adv-x="1212" d="M25 0l430 1536h311l430 -1536h-223l-125 467h-475l-125 -467h-223zM203 1655l317 391h172l317 -391h-170l-233 270l-233 -270h-170zM430 674h361l-179 647h-8z" />
<glyph unicode="&#xc3;" horiz-adv-x="1220" d="M25 0l430 1536h311l430 -1536h-223l-125 467h-475l-125 -467h-223zM200 1679q10 131 68.5 206t161.5 75q86 0 182 -68q33 -25 58.5 -41t46 -26.5t39 -15.5t40.5 -5q35 0 64 28.5t35 100.5h125q-10 -131 -68.5 -205.5t-163.5 -74.5q-88 0 -180 67q-35 25 -59.5 41 t-45 26.5t-39 15.5t-40.5 5q-35 0 -62.5 -28.5t-36.5 -100.5h-125zM430 674h361l-179 647h-8z" />
<glyph unicode="&#xc4;" horiz-adv-x="1220" d="M25 0l430 1536h311l430 -1536h-223l-125 467h-475l-125 -467h-223zM297 1687v228h215v-228h-215zM430 674h361l-179 647h-8zM704 1687v228h215v-228h-215z" />
<glyph unicode="&#xc5;" horiz-adv-x="1220" d="M25 0l430 1536h311l430 -1536h-223l-125 467h-475l-125 -467h-223zM377 1857q0 49 18 91t49 74t73 50.5t91 18.5t91 -18.5t74 -50.5t50 -74t18 -91t-18 -91t-50 -72.5t-74 -49t-91 -18.5t-91 18.5t-73 49t-49 72.5t-18 91zM430 674h361l-179 647h-8zM473 1857 q0 -59 39 -99t96 -40t97 40t40 99t-40 100.5t-97 41.5t-96 -41.5t-39 -100.5z" />
<glyph unicode="&#xc6;" horiz-adv-x="1800" d="M-16 0l678 1536h1056v-211h-610v-432h496v-211h-496v-471h610v-211h-827v471h-459l-203 -471h-245zM522 682h369v643h-92z" />
<glyph unicode="&#xc7;" horiz-adv-x="1220" d="M133 506v524q0 74 9.5 130.5t27.5 103.5q29 70 77 125t107.5 92t128 56t140.5 19h16q72 0 141.5 -19t130 -56t107.5 -92.5t76 -124.5q35 -86 36 -215h-219q-2 47 -8 86t-20 69q-35 78 -103.5 111t-140.5 33h-16q-72 0 -140.5 -33t-103.5 -111q-16 -35 -22.5 -78t-6.5 -96 v-524q0 -53 6 -96t23 -78q35 -78 103.5 -110t140.5 -32h16q72 0 140.5 32t103.5 110q29 68 28 168h219q-2 -72 -11 -127.5t-25 -100.5q-29 -72 -76 -126t-107.5 -91t-130 -56t-141.5 -19h-8l-23 -80q45 -10 85 -26.5t71 -41.5t48 -56.5t17 -72.5q0 -86 -59 -138t-149 -52 q-98 0 -161 50t-75 128h109q27 -84 124 -84q47 0 75 26.5t28 65.5q0 41 -29.5 67.5t-103.5 47.5l-51 14q-51 12 -35 63l33 97q-119 18 -217.5 91t-147.5 193q-18 47 -27.5 103.5t-9.5 130.5z" />
<glyph unicode="&#xc8;" horiz-adv-x="1136" d="M156 0v1536h899v-211h-682v-432h563v-211h-563v-471h682v-211h-899zM293 2021h258l242 -368h-146z" />
<glyph unicode="&#xc9;" horiz-adv-x="1136" d="M156 0v1536h899v-211h-682v-432h563v-211h-563v-471h682v-211h-899zM411 1653l242 368h258l-354 -368h-146z" />
<glyph unicode="&#xca;" horiz-adv-x="1136" d="M156 0v1536h899v-211h-682v-432h563v-211h-563v-471h682v-211h-899zM193 1655l317 391h172l317 -391h-170l-233 270l-233 -270h-170z" />
<glyph unicode="&#xcb;" horiz-adv-x="1136" d="M156 0v1536h899v-211h-682v-432h563v-211h-563v-471h682v-211h-899zM295 1687v228h215v-228h-215zM702 1687v228h215v-228h-215z" />
<glyph unicode="&#xcc;" horiz-adv-x="528" d="M-127 2021h258l242 -368h-146zM156 0v1536h217v-1536h-217z" />
<glyph unicode="&#xcd;" horiz-adv-x="528" d="M156 0v1536h217v-1536h-217zM159 1653l242 368h258l-354 -368h-146z" />
<glyph unicode="&#xce;" horiz-adv-x="528" d="M-137 1655l317 391h172l317 -391h-170l-233 270l-233 -270h-170zM156 0v1536h217v-1536h-217z" />
<glyph unicode="&#xcf;" horiz-adv-x="528" d="M-45 1687v228h215v-228h-215zM156 0v1536h217v-1536h-217zM362 1687v228h215v-228h-215z" />
<glyph unicode="&#xd0;" horiz-adv-x="1361" d="M31 731v156h221v649h469q174 0 294 -75t179 -216q37 -92 37 -235v-484q0 -143 -37 -235q-59 -141 -179 -216t-294 -75h-469v731h-221zM469 211h252q104 0 166.5 32.5t97.5 110.5q29 63 29 172v484q0 109 -29 172q-35 78 -97.5 110.5t-166.5 32.5h-252v-438h303v-156h-303 v-520z" />
<glyph unicode="&#xd1;" horiz-adv-x="1327" d="M156 0v1536h258l549 -1165h2q-2 20 -2 41v77v1047h208v-1536h-260l-546 1165h-3v-41q0 -16 1.5 -37.5t1.5 -39.5v-1047h-209zM254 1679q10 131 68.5 206t161.5 75q86 0 182 -68q33 -25 58.5 -41t46 -26.5t39 -15.5t40.5 -5q35 0 64 28.5t35 100.5h125 q-10 -131 -68.5 -205.5t-163.5 -74.5q-88 0 -180 67q-35 25 -59.5 41t-45 26.5t-39 15.5t-40.5 5q-35 0 -62.5 -28.5t-36.5 -100.5h-125z" />
<glyph unicode="&#xd2;" horiz-adv-x="1261" d="M133 506v524q0 74 9.5 130.5t27.5 103.5q29 70 77 125t107.5 92t128 56t140.5 19h16q72 0 140.5 -19t128 -56t107.5 -92.5t77 -124.5q18 -47 27 -103.5t9 -130.5v-524q0 -74 -9 -130.5t-27 -103.5q-29 -72 -77 -126t-107.5 -91t-128 -56t-140.5 -19h-16q-72 0 -140.5 19 t-128 56t-107.5 91.5t-77 125.5q-18 47 -27.5 103.5t-9.5 130.5zM340 2021h258l242 -368h-146zM350 506q0 -53 6 -97t23 -79q35 -78 103.5 -110t140.5 -32h16q72 0 140.5 32t103.5 110q16 35 22 79t6 97v524q0 53 -6 97t-22 79q-35 78 -103.5 110t-140.5 32h-16 q-72 0 -140.5 -32t-103.5 -110q-16 -35 -22.5 -79t-6.5 -97v-524z" />
<glyph unicode="&#xd3;" horiz-adv-x="1261" d="M133 506v524q0 74 9.5 130.5t27.5 103.5q29 70 77 125t107.5 92t128 56t140.5 19h16q72 0 140.5 -19t128 -56t107.5 -92.5t77 -124.5q18 -47 27 -103.5t9 -130.5v-524q0 -74 -9 -130.5t-27 -103.5q-29 -72 -77 -126t-107.5 -91t-128 -56t-140.5 -19h-16q-72 0 -140.5 19 t-128 56t-107.5 91.5t-77 125.5q-18 47 -27.5 103.5t-9.5 130.5zM350 506q0 -53 6 -97t23 -79q35 -78 103.5 -110t140.5 -32h16q72 0 140.5 32t103.5 110q16 35 22 79t6 97v524q0 53 -6 97t-22 79q-35 78 -103.5 110t-140.5 32h-16q-72 0 -140.5 -32t-103.5 -110 q-16 -35 -22.5 -79t-6.5 -97v-524zM421 1653l242 368h258l-354 -368h-146z" />
<glyph unicode="&#xd4;" horiz-adv-x="1261" d="M133 506v524q0 74 9.5 130.5t27.5 103.5q29 70 77 125t107.5 92t128 56t140.5 19h16q72 0 140.5 -19t128 -56t107.5 -92.5t77 -124.5q18 -47 27 -103.5t9 -130.5v-524q0 -74 -9 -130.5t-27 -103.5q-29 -72 -77 -126t-107.5 -91t-128 -56t-140.5 -19h-16q-72 0 -140.5 19 t-128 56t-107.5 91.5t-77 125.5q-18 47 -27.5 103.5t-9.5 130.5zM228 1635l317 391h172l317 -391h-170l-233 270l-233 -270h-170zM350 506q0 -53 6 -97t23 -79q35 -78 103.5 -110t140.5 -32h16q72 0 140.5 32t103.5 110q16 35 22 79t6 97v524q0 53 -6 97t-22 79 q-35 78 -103.5 110t-140.5 32h-16q-72 0 -140.5 -32t-103.5 -110q-16 -35 -22.5 -79t-6.5 -97v-524z" />
<glyph unicode="&#xd5;" horiz-adv-x="1261" d="M133 506v524q0 74 9.5 130.5t27.5 103.5q29 70 77 125t107.5 92t128 56t140.5 19h16q72 0 140.5 -19t128 -56t107.5 -92.5t77 -124.5q18 -47 27 -103.5t9 -130.5v-524q0 -74 -9 -130.5t-27 -103.5q-29 -72 -77 -126t-107.5 -91t-128 -56t-140.5 -19h-16q-72 0 -140.5 19 t-128 56t-107.5 91.5t-77 125.5q-18 47 -27.5 103.5t-9.5 130.5zM221 1679q10 131 68.5 206t161.5 75q86 0 182 -68q33 -25 58.5 -41t46 -26.5t39 -15.5t40.5 -5q35 0 64 28.5t35 100.5h125q-10 -131 -68.5 -205.5t-163.5 -74.5q-88 0 -180 67q-35 25 -59.5 41t-45 26.5 t-39 15.5t-40.5 5q-35 0 -62.5 -28.5t-36.5 -100.5h-125zM350 506q0 -53 6 -97t23 -79q35 -78 103.5 -110t140.5 -32h16q72 0 140.5 32t103.5 110q16 35 22 79t6 97v524q0 53 -6 97t-22 79q-35 78 -103.5 110t-140.5 32h-16q-72 0 -140.5 -32t-103.5 -110q-16 -35 -22.5 -79 t-6.5 -97v-524z" />
<glyph unicode="&#xd6;" horiz-adv-x="1261" d="M133 506v524q0 74 9.5 130.5t27.5 103.5q29 70 77 125t107.5 92t128 56t140.5 19h16q72 0 140.5 -19t128 -56t107.5 -92.5t77 -124.5q18 -47 27 -103.5t9 -130.5v-524q0 -74 -9 -130.5t-27 -103.5q-29 -72 -77 -126t-107.5 -91t-128 -56t-140.5 -19h-16q-72 0 -140.5 19 t-128 56t-107.5 91.5t-77 125.5q-18 47 -27.5 103.5t-9.5 130.5zM320 1687v228h215v-228h-215zM350 506q0 -53 6 -97t23 -79q35 -78 103.5 -110t140.5 -32h16q72 0 140.5 32t103.5 110q16 35 22 79t6 97v524q0 53 -6 97t-22 79q-35 78 -103.5 110t-140.5 32h-16 q-72 0 -140.5 -32t-103.5 -110q-16 -35 -22.5 -79t-6.5 -97v-524zM727 1687v228h215v-228h-215z" />
<glyph unicode="&#xd7;" horiz-adv-x="1142" d="M74 244l370 370l-370 371l127 127l370 -371l371 371l127 -127l-371 -371l371 -370l-127 -127l-371 370l-370 -370z" />
<glyph unicode="&#xd8;" horiz-adv-x="1261" d="M133 506v524q0 74 9.5 129t27.5 103q29 70 77 125t107.5 93t128 57t140.5 19h16q135 0 250 -65l55 117h156l-96 -209q27 -29 49 -62.5t39 -74.5q18 -47 27 -102.5t9 -129.5v-524q0 -74 -9 -129t-27 -103q-29 -72 -77 -126t-107.5 -92t-128 -57t-140.5 -19h-16 q-137 0 -252 65l-54 -117h-155l96 207q-57 61 -88 139q-18 47 -27.5 102.5t-9.5 129.5zM350 506q0 -84 15 -139l436 933q-37 25 -79 36.5t-83 11.5h-16q-72 0 -140.5 -33t-103.5 -111q-16 -35 -22.5 -78t-6.5 -96v-524zM459 236q37 -25 79 -36.5t85 -11.5h16q72 0 140.5 33 t103.5 111q16 35 22 78t6 96v524q0 41 -3 76t-13 63z" />
<glyph unicode="&#xd9;" horiz-adv-x="1290" d="M147 506v1030h218v-1030q0 -53 6 -97t22 -79q35 -78 103.5 -110t140.5 -32h16q72 0 140.5 32t103.5 110q16 35 22.5 79t6.5 97v1030h217v-1030q0 -74 -9.5 -130.5t-27.5 -103.5q-29 -72 -77 -126t-107.5 -91t-128 -56t-140.5 -19h-16q-72 0 -140.5 19t-128 56 t-107.5 91.5t-77 125.5q-18 47 -27.5 103.5t-9.5 130.5zM313 2021h258l242 -368h-146z" />
<glyph unicode="&#xda;" horiz-adv-x="1290" d="M147 506v1030h218v-1030q0 -53 6 -97t22 -79q35 -78 103.5 -110t140.5 -32h16q72 0 140.5 32t103.5 110q16 35 22.5 79t6.5 97v1030h217v-1030q0 -74 -9.5 -130.5t-27.5 -103.5q-29 -72 -77 -126t-107.5 -91t-128 -56t-140.5 -19h-16q-72 0 -140.5 19t-128 56 t-107.5 91.5t-77 125.5q-18 47 -27.5 103.5t-9.5 130.5zM477 1653l242 368h258l-354 -368h-146z" />
<glyph unicode="&#xdb;" horiz-adv-x="1290" d="M147 506v1030h218v-1030q0 -53 6 -97t22 -79q35 -78 103.5 -110t140.5 -32h16q72 0 140.5 32t103.5 110q16 35 22.5 79t6.5 97v1030h217v-1030q0 -74 -9.5 -130.5t-27.5 -103.5q-29 -72 -77 -126t-107.5 -91t-128 -56t-140.5 -19h-16q-72 0 -140.5 19t-128 56 t-107.5 91.5t-77 125.5q-18 47 -27.5 103.5t-9.5 130.5zM242 1655l317 391h172l317 -391h-170l-233 270l-233 -270h-170z" />
<glyph unicode="&#xdc;" horiz-adv-x="1290" d="M147 506v1030h218v-1030q0 -53 6 -97t22 -79q35 -78 103.5 -110t140.5 -32h16q72 0 140.5 32t103.5 110q16 35 22.5 79t6.5 97v1030h217v-1030q0 -74 -9.5 -130.5t-27.5 -103.5q-29 -72 -77 -126t-107.5 -91t-128 -56t-140.5 -19h-16q-72 0 -140.5 19t-128 56 t-107.5 91.5t-77 125.5q-18 47 -27.5 103.5t-9.5 130.5zM334 1687v228h215v-228h-215zM741 1687v228h215v-228h-215z" />
<glyph unicode="&#xdd;" horiz-adv-x="1191" d="M6 1536h246l342 -637h4l342 637h246l-481 -872v-664h-218v664zM469 1653l242 368h258l-354 -368h-146z" />
<glyph unicode="&#xde;" horiz-adv-x="1234" d="M156 0v1536h217v-287h250q78 0 130 -7t93 -23q135 -49 213 -166t78 -277q0 -158 -78 -272.5t-213 -163.5q-41 -16 -91 -23.5t-132 -7.5h-250v-309h-217zM373 520h245q72 0 111 9.5t68 25.5q57 33 90 91.5t33 129.5q0 76 -33 135.5t-90 92.5q-29 16 -68 25t-111 9h-245 v-518z" />
<glyph unicode="&#xdf;" horiz-adv-x="1230" d="M150 0v1065q0 113 24 186q25 74 68 130.5t100 95.5t127 59t147 20q94 0 176 -28.5t142.5 -80.5t94.5 -126t34 -164q0 -119 -53.5 -203t-151.5 -137q49 -16 97.5 -49t85 -83t60 -114.5t23.5 -142.5q0 -115 -34.5 -199t-95 -139t-138.5 -82.5t-164 -27.5q-72 0 -127 8 t-102 22v193q51 -20 100 -29.5t109 -9.5q104 0 176 67.5t72 196.5q0 72 -27 126t-72 91t-105.5 55.5t-125.5 18.5h-41v168h57q47 0 92 17.5t81 51t57.5 81.5t21.5 110q0 98 -66.5 156.5t-175.5 58.5q-76 0 -138 -35t-95 -100q-29 -57 -29 -152v-1075h-204z" />
<glyph unicode="&#xe0;" horiz-adv-x="1105" d="M102 360q0 80 28 146.5t80 114t128 74t172 26.5h248v55q0 205 -203 205q-86 0 -130 -35t-65 -94h-213q29 143 132.5 229t277.5 86q211 0 308.5 -105.5t97.5 -303.5v-758h-146l-24 147h-2q-53 -78 -129 -122.5t-179 -44.5q-172 0 -276.5 100t-104.5 280zM232 1655h258 l242 -368h-146zM307 362q0 -90 50.5 -143t154.5 -53q51 0 96 24.5t79 61.5t52.5 81t18.5 85v125h-246q-92 0 -148.5 -47.5t-56.5 -133.5z" />
<glyph unicode="&#xe1;" horiz-adv-x="1105" d="M102 360q0 80 28 146.5t80 114t128 74t172 26.5h248v55q0 205 -203 205q-86 0 -130 -35t-65 -94h-213q29 143 132.5 229t277.5 86q211 0 308.5 -105.5t97.5 -303.5v-758h-146l-24 147h-2q-53 -78 -129 -122.5t-179 -44.5q-172 0 -276.5 100t-104.5 280zM307 362 q0 -90 50.5 -143t154.5 -53q51 0 96 24.5t79 61.5t52.5 81t18.5 85v125h-246q-92 0 -148.5 -47.5t-56.5 -133.5zM360 1287l242 368h258l-354 -368h-146z" />
<glyph unicode="&#xe2;" horiz-adv-x="1105" d="M102 360q0 80 28 146.5t80 114t128 74t172 26.5h248v55q0 205 -203 205q-86 0 -130 -35t-65 -94h-213q29 143 132.5 229t277.5 86q211 0 308.5 -105.5t97.5 -303.5v-758h-146l-24 147h-2q-53 -78 -129 -122.5t-179 -44.5q-172 0 -276.5 100t-104.5 280zM144 1268l317 391 h172l317 -391h-170l-233 270l-233 -270h-170zM307 362q0 -90 50.5 -143t154.5 -53q51 0 96 24.5t79 61.5t52.5 81t18.5 85v125h-246q-92 0 -148.5 -47.5t-56.5 -133.5z" />
<glyph unicode="&#xe3;" horiz-adv-x="1105" d="M102 360q0 80 28 146.5t80 114t128 74t172 26.5h248v55q0 205 -203 205q-86 0 -130 -35t-65 -94h-213q29 143 132.5 229t277.5 86q211 0 308.5 -105.5t97.5 -303.5v-758h-146l-24 147h-2q-53 -78 -129 -122.5t-179 -44.5q-172 0 -276.5 100t-104.5 280zM137 1313 q10 131 68.5 206t161.5 75q86 0 182 -68q33 -25 58.5 -41t46 -26.5t39 -15.5t40.5 -5q35 0 64 28.5t35 100.5h125q-10 -131 -68.5 -205.5t-163.5 -74.5q-88 0 -180 67q-35 25 -59.5 41t-45 26.5t-39 15.5t-40.5 5q-35 0 -62.5 -28.5t-36.5 -100.5h-125zM307 362 q0 -90 50.5 -143t154.5 -53q51 0 96 24.5t79 61.5t52.5 81t18.5 85v125h-246q-92 0 -148.5 -47.5t-56.5 -133.5z" />
<glyph unicode="&#xe4;" horiz-adv-x="1105" d="M102 360q0 80 28 146.5t80 114t128 74t172 26.5h248v55q0 205 -203 205q-86 0 -130 -35t-65 -94h-213q29 143 132.5 229t277.5 86q211 0 308.5 -105.5t97.5 -303.5v-758h-146l-24 147h-2q-53 -78 -129 -122.5t-179 -44.5q-172 0 -276.5 100t-104.5 280zM236 1321v228h215 v-228h-215zM307 362q0 -90 50.5 -143t154.5 -53q51 0 96 24.5t79 61.5t52.5 81t18.5 85v125h-246q-92 0 -148.5 -47.5t-56.5 -133.5zM643 1321v228h215v-228h-215z" />
<glyph unicode="&#xe5;" horiz-adv-x="1105" d="M102 360q0 80 28 146.5t80 114t128 74t172 26.5h248v55q0 205 -203 205q-86 0 -130 -35t-65 -94h-213q29 143 132.5 229t277.5 86q211 0 308.5 -105.5t97.5 -303.5v-758h-146l-24 147h-2q-53 -78 -129 -122.5t-179 -44.5q-172 0 -276.5 100t-104.5 280zM307 362 q0 -90 50.5 -143t154.5 -53q51 0 96 24.5t79 61.5t52.5 81t18.5 85v125h-246q-92 0 -148.5 -47.5t-56.5 -133.5zM326 1491q0 49 18 91t49 74t73 50.5t91 18.5t91 -18.5t74 -50.5t50 -74t18 -91t-18 -91t-50 -72.5t-74 -49t-91 -18.5t-91 18.5t-73 49t-49 72.5t-18 91z M422 1491q0 -59 39 -99t96 -40t97 40t40 99t-40 100.5t-97 41.5t-96 -41.5t-39 -100.5z" />
<glyph unicode="&#xe6;" horiz-adv-x="1744" d="M102 360q0 160 105.5 254.5t294.5 94.5h256v67q0 205 -201 205q-86 0 -130 -35t-65 -94h-219q29 143 134.5 229t279.5 86q115 0 198 -38.5t126 -110.5q53 72 136 110.5t179 38.5q209 0 324.5 -131t115.5 -397v-102h-673v-95q0 -127 62 -201.5t169 -74.5q82 0 140.5 47 t82.5 133h213q-35 -180 -152.5 -273t-283.5 -93q-127 0 -216 55t-140 160q-61 -113 -145.5 -164t-200.5 -51q-182 0 -286 100t-104 280zM307 362q0 -90 50.5 -143t154.5 -53q51 0 96 24.5t79 61.5t52.5 81t18.5 85v119h-250q-82 0 -141.5 -44.5t-59.5 -130.5zM963 709h469 q-6 141 -69 206.5t-167 65.5t-165.5 -65.5t-67.5 -206.5z" />
<glyph unicode="&#xe7;" horiz-adv-x="1077" d="M113 469v209q0 66 8 119t22 94q45 131 151.5 203.5t254.5 72.5q147 0 254.5 -70.5t152.5 -201.5q16 -51 27 -129h-209q-6 43 -18 74q-27 66 -80 98.5t-127 32.5t-127 -35t-80 -100q-25 -59 -25 -162v-201q0 -104 25 -162q27 -66 80 -100.5t127 -34.5t127 32.5t80 98.5 q10 25 16 53h209q-10 -63 -25 -108q-45 -131 -151.5 -200.5t-253.5 -71.5l-23 -80q45 -10 85 -26.5t71 -41.5t48.5 -56.5t17.5 -72.5q0 -86 -59.5 -138t-149.5 -52q-98 0 -161 50t-75 128h109q27 -84 125 -84q47 0 74.5 26.5t27.5 65.5q0 41 -29.5 67.5t-103.5 47.5l-51 14 q-51 12 -35 63l33 97q-113 20 -194 88.5t-118 179.5q-14 41 -22 94t-8 119z" />
<glyph unicode="&#xe8;" horiz-adv-x="1093" d="M113 469v209q0 66 8 119t22 94q45 131 153 203.5t255 72.5t253.5 -72.5t151.5 -203.5q14 -41 22.5 -94.5t8.5 -118.5v-152h-670v-69q0 -133 61.5 -212t170.5 -79q82 0 140.5 45t82.5 129h211q-35 -176 -152.5 -268t-281.5 -92q-147 0 -254 72.5t-152 203.5q-14 41 -22 94 t-8 119zM236 1655h258l242 -368h-146zM317 711h467q-2 82 -24 135q-27 66 -81 100.5t-128 34.5t-128 -34.5t-81 -100.5q-23 -53 -25 -135z" />
<glyph unicode="&#xe9;" horiz-adv-x="1093" d="M113 469v209q0 66 8 119t22 94q45 131 153 203.5t255 72.5t253.5 -72.5t151.5 -203.5q14 -41 22.5 -94.5t8.5 -118.5v-152h-670v-69q0 -133 61.5 -212t170.5 -79q82 0 140.5 45t82.5 129h211q-35 -176 -152.5 -268t-281.5 -92q-147 0 -254 72.5t-152 203.5q-14 41 -22 94 t-8 119zM317 711h467q-2 82 -24 135q-27 66 -81 100.5t-128 34.5t-128 -34.5t-81 -100.5q-23 -53 -25 -135zM337 1287l242 368h258l-354 -368h-146z" />
<glyph unicode="&#xea;" horiz-adv-x="1093" d="M113 469v209q0 66 8 119t22 94q45 131 153 203.5t255 72.5t253.5 -72.5t151.5 -203.5q14 -41 22.5 -94.5t8.5 -118.5v-152h-670v-69q0 -133 61.5 -212t170.5 -79q82 0 140.5 45t82.5 129h211q-35 -176 -152.5 -268t-281.5 -92q-147 0 -254 72.5t-152 203.5q-14 41 -22 94 t-8 119zM144 1268l317 391h172l317 -391h-170l-233 270l-233 -270h-170zM317 711h467q-2 82 -24 135q-27 66 -81 100.5t-128 34.5t-128 -34.5t-81 -100.5q-23 -53 -25 -135z" />
<glyph unicode="&#xeb;" horiz-adv-x="1093" d="M113 469v209q0 66 8 119t22 94q45 131 153 203.5t255 72.5t253.5 -72.5t151.5 -203.5q14 -41 22.5 -94.5t8.5 -118.5v-152h-670v-69q0 -133 61.5 -212t170.5 -79q82 0 140.5 45t82.5 129h211q-35 -176 -152.5 -268t-281.5 -92q-147 0 -254 72.5t-152 203.5q-14 41 -22 94 t-8 119zM236 1321v228h215v-228h-215zM317 711h467q-2 82 -24 135q-27 66 -81 100.5t-128 34.5t-128 -34.5t-81 -100.5q-23 -53 -25 -135zM643 1321v228h215v-228h-215z" />
<glyph unicode="&#xec;" horiz-adv-x="503" d="M-145 1655h258l242 -368h-146zM150 0v1147h204v-1147h-204z" />
<glyph unicode="&#xed;" horiz-adv-x="503" d="M150 0v1147h204v-1147h-204zM153 1287l242 368h258l-354 -368h-146z" />
<glyph unicode="&#xee;" horiz-adv-x="503" d="M-119 1286l289 391h164l289 -391h-168l-203 264l-203 -264h-168zM150 0v1147h204v-1147h-204z" />
<glyph unicode="&#xef;" horiz-adv-x="503" d="M-57 1321v228h215v-228h-215zM150 0v1147h204v-1147h-204zM350 1321v228h215v-228h-215z" />
<glyph unicode="&#xf0;" horiz-adv-x="1097" d="M113 469v100q0 135 30 226q47 133 146.5 201.5t222.5 68.5q18 0 45 -4t54.5 -12.5t51 -19.5t39.5 -25q-4 33 -36.5 99t-85.5 150l-250 -94l-47 129l219 82q-61 86 -125 160l174 78q35 -41 68.5 -82t66.5 -86l232 88l47 -129l-201 -76q45 -76 83 -154.5t66 -162.5 q35 -102 53.5 -203t18.5 -205v-129q0 -66 -8 -119t-23 -94q-45 -131 -151.5 -203.5t-253.5 -72.5t-254 72.5t-152 203.5q-14 41 -22 94t-8 119zM317 473q0 -104 25 -162q27 -66 80 -100.5t127 -34.5t127 35t80 100q25 57 24 162v117q0 53 -15 103t-45 88t-75 61.5t-104 23.5 q-74 0 -123 -32.5t-74 -90.5q-27 -61 -27 -174v-96z" />
<glyph unicode="&#xf1;" horiz-adv-x="1185" d="M150 0v1147h153l27 -150h2q51 78 128.5 124t192.5 46q143 0 237.5 -76.5t131.5 -216.5q10 -37 15 -88t5 -98v-688h-204v682q0 49 -5.5 85t-15.5 64q-47 139 -203 140q-78 0 -139 -48.5t-94 -115.5q-12 -27 -19.5 -58.5t-7.5 -82.5v-666h-204zM176 1313q10 131 68.5 206 t161.5 75q86 0 182 -68q33 -25 58.5 -41t46 -26.5t39 -15.5t40.5 -5q35 0 64 28.5t35 100.5h125q-10 -131 -68.5 -205.5t-163.5 -74.5q-88 0 -180 67q-35 25 -59.5 41t-45 26.5t-39 15.5t-40.5 5q-35 0 -62.5 -28.5t-36.5 -100.5h-125z" />
<glyph unicode="&#xf2;" horiz-adv-x="1097" d="M113 469v209q0 66 8 119t22 94q45 131 151.5 203.5t254.5 72.5q147 0 253.5 -72.5t151.5 -203.5q14 -41 22.5 -94.5t8.5 -118.5v-209q0 -66 -8 -119t-23 -94q-45 -131 -151.5 -203.5t-253.5 -72.5t-254 72.5t-152 203.5q-14 41 -22 94t-8 119zM238 1655h258l242 -368 h-146zM317 473q0 -104 25 -162q27 -66 80 -100.5t127 -34.5t127 35t80 100q25 57 24 162v201q0 102 -24 162q-27 66 -80 100.5t-127 34.5t-127 -35t-80 -100q-25 -59 -25 -162v-201z" />
<glyph unicode="&#xf3;" horiz-adv-x="1097" d="M113 469v209q0 66 8 119t22 94q45 131 151.5 203.5t254.5 72.5q147 0 253.5 -72.5t151.5 -203.5q14 -41 22.5 -94.5t8.5 -118.5v-209q0 -66 -8 -119t-23 -94q-45 -131 -151.5 -203.5t-253.5 -72.5t-254 72.5t-152 203.5q-14 41 -22 94t-8 119zM317 473q0 -104 25 -162 q27 -66 80 -100.5t127 -34.5t127 35t80 100q25 57 24 162v201q0 102 -24 162q-27 66 -80 100.5t-127 34.5t-127 -35t-80 -100q-25 -59 -25 -162v-201zM362 1287l242 368h258l-354 -368h-146z" />
<glyph unicode="&#xf4;" horiz-adv-x="1097" d="M113 469v209q0 66 8 119t22 94q45 131 151.5 203.5t254.5 72.5q147 0 253.5 -72.5t151.5 -203.5q14 -41 22.5 -94.5t8.5 -118.5v-209q0 -66 -8 -119t-23 -94q-45 -131 -151.5 -203.5t-253.5 -72.5t-254 72.5t-152 203.5q-14 41 -22 94t-8 119zM146 1268l317 391h172 l317 -391h-170l-233 270l-233 -270h-170zM317 473q0 -104 25 -162q27 -66 80 -100.5t127 -34.5t127 35t80 100q25 57 24 162v201q0 102 -24 162q-27 66 -80 100.5t-127 34.5t-127 -35t-80 -100q-25 -59 -25 -162v-201z" />
<glyph unicode="&#xf5;" horiz-adv-x="1097" d="M113 469v209q0 66 8 119t22 94q45 131 151.5 203.5t254.5 72.5q147 0 253.5 -72.5t151.5 -203.5q14 -41 22.5 -94.5t8.5 -118.5v-209q0 -66 -8 -119t-23 -94q-45 -131 -151.5 -203.5t-253.5 -72.5t-254 72.5t-152 203.5q-14 41 -22 94t-8 119zM145 1313q10 131 68.5 206 t161.5 75q86 0 182 -68q33 -25 58.5 -41t46 -26.5t39 -15.5t40.5 -5q35 0 64 28.5t35 100.5h125q-10 -131 -68.5 -205.5t-163.5 -74.5q-88 0 -180 67q-35 25 -59.5 41t-45 26.5t-39 15.5t-40.5 5q-35 0 -62.5 -28.5t-36.5 -100.5h-125zM317 473q0 -104 25 -162 q27 -66 80 -100.5t127 -34.5t127 35t80 100q25 57 24 162v201q0 102 -24 162q-27 66 -80 100.5t-127 34.5t-127 -35t-80 -100q-25 -59 -25 -162v-201z" />
<glyph unicode="&#xf6;" horiz-adv-x="1097" d="M113 469v209q0 66 8 119t22 94q45 131 151.5 203.5t254.5 72.5q147 0 253.5 -72.5t151.5 -203.5q14 -41 22.5 -94.5t8.5 -118.5v-209q0 -66 -8 -119t-23 -94q-45 -131 -151.5 -203.5t-253.5 -72.5t-254 72.5t-152 203.5q-14 41 -22 94t-8 119zM238 1321v228h215v-228 h-215zM317 473q0 -104 25 -162q27 -66 80 -100.5t127 -34.5t127 35t80 100q25 57 24 162v201q0 102 -24 162q-27 66 -80 100.5t-127 34.5t-127 -35t-80 -100q-25 -59 -25 -162v-201zM645 1321v228h215v-228h-215z" />
<glyph unicode="&#xf7;" horiz-adv-x="1200" d="M61 524v181h1078v-181h-1078zM477 82v252h236v-252h-236zM477 895v252h236v-252h-236z" />
<glyph unicode="&#xf8;" horiz-adv-x="1097" d="M113 465v217q0 125 30 209q47 131 152.5 203.5t253.5 72.5q102 0 192 -39l43 91h144l-78 -164q68 -63 104 -164q31 -84 31 -209v-217q0 -127 -31 -209q-47 -131 -152.5 -203.5t-252.5 -72.5q-53 0 -100.5 10t-90.5 26l-41 -88h-143l76 162q-74 68 -107 166 q-31 82 -30 209zM317 471q0 -53 7.5 -93t23.5 -81l307 649q-49 23 -106 23q-74 0 -127 -35t-80 -100q-12 -29 -18.5 -67t-6.5 -91v-205zM444 199q43 -20 105 -21q74 0 127 35t80 100q25 57 24 158v205q0 53 -6 92t-22 78z" />
<glyph unicode="&#xf9;" horiz-adv-x="1181" d="M143 459v688h205v-682q0 -49 5 -85t16 -65q47 -139 200 -139q78 0 138.5 48t93.5 116q12 27 19 58.5t7 82.5v666h205v-1147h-153l-27 150h-2q-51 -78 -128 -124t-192 -46q-143 0 -236 76.5t-130 215.5q-10 37 -15.5 88.5t-5.5 98.5zM258 1655h258l242 -368h-146z" />
<glyph unicode="&#xfa;" horiz-adv-x="1181" d="M143 459v688h205v-682q0 -49 5 -85t16 -65q47 -139 200 -139q78 0 138.5 48t93.5 116q12 27 19 58.5t7 82.5v666h205v-1147h-153l-27 150h-2q-51 -78 -128 -124t-192 -46q-143 0 -236 76.5t-130 215.5q-10 37 -15.5 88.5t-5.5 98.5zM421 1287l242 368h258l-354 -368h-146 z" />
<glyph unicode="&#xfb;" horiz-adv-x="1181" d="M143 459v688h205v-682q0 -49 5 -85t16 -65q47 -139 200 -139q78 0 138.5 48t93.5 116q12 27 19 58.5t7 82.5v666h205v-1147h-153l-27 150h-2q-51 -78 -128 -124t-192 -46q-143 0 -236 76.5t-130 215.5q-10 37 -15.5 88.5t-5.5 98.5zM187 1289l317 391h172l317 -391h-170 l-233 270l-233 -270h-170z" />
<glyph unicode="&#xfc;" horiz-adv-x="1181" d="M143 459v688h205v-682q0 -49 5 -85t16 -65q47 -139 200 -139q78 0 138.5 48t93.5 116q12 27 19 58.5t7 82.5v666h205v-1147h-153l-27 150h-2q-51 -78 -128 -124t-192 -46q-143 0 -236 76.5t-130 215.5q-10 37 -15.5 88.5t-5.5 98.5zM279 1321v228h215v-228h-215z M686 1321v228h215v-228h-215z" />
<glyph unicode="&#xfd;" horiz-adv-x="1040" d="M18 -225q35 -8 67 -14.5t73 -6.5q84 0 127 46t71 120l62 164l-395 1063h219l282 -807h4l277 807h217l-479 -1305q-53 -147 -142.5 -215.5t-218.5 -68.5q-90 0 -164 22v195zM393 1287l242 368h258l-354 -368h-146z" />
<glyph unicode="&#xfe;" horiz-adv-x="1159" d="M154 -500v2108h204v-469q0 -20 -1 -41t-1 -37v-41h2q47 66 118 106.5t173 40.5q143 0 241.5 -76.5t135.5 -216.5q10 -37 15.5 -88t5.5 -98v-213q0 -53 -4.5 -101t-14.5 -85q-39 -154 -143.5 -231.5t-245.5 -77.5q-84 0 -157.5 32.5t-123.5 85.5h-2v-41q0 -16 1 -37.5 t1 -39.5v-480h-204zM358 487q0 -74 17 -127q25 -78 83 -131t150 -53q86 0 139.5 42t75.5 114q10 27 14.5 59.5t4.5 81.5v209q0 49 -5.5 85t-15.5 64q-47 139 -203 140q-78 0 -139 -48.5t-94 -115.5q-12 -27 -19.5 -58.5t-7.5 -82.5v-179z" />
<glyph unicode="&#xff;" horiz-adv-x="1040" d="M18 -225q35 -8 67 -14.5t73 -6.5q84 0 127 46t71 120l62 164l-395 1063h219l282 -807h4l277 807h217l-479 -1305q-53 -147 -142.5 -215.5t-218.5 -68.5q-90 0 -164 22v195zM209 1321v228h215v-228h-215zM616 1321v228h215v-228h-215z" />
<glyph unicode="&#x152;" horiz-adv-x="1742" d="M133 526v484q0 74 9.5 129t27.5 102q59 141 176 218t277 77h1038v-211h-610v-432h495v-211h-495v-471h610v-211h-1038q-160 0 -277 77t-176 218q-18 47 -27.5 102.5t-9.5 128.5zM350 526q0 -53 6 -96t23 -78q35 -78 95.5 -109.5t148.5 -31.5h211v1114h-211 q-88 0 -148.5 -31.5t-95.5 -109.5q-16 -35 -22.5 -78t-6.5 -96v-484z" />
<glyph unicode="&#x153;" horiz-adv-x="1771" d="M113 449v249q0 109 32.5 196t90 147.5t137.5 93t176 32.5q111 0 196.5 -45t139.5 -137q53 92 142 137t194 45q209 0 324.5 -131t115.5 -397v-115h-674v-75q2 -129 63.5 -206t168.5 -77q82 0 140 47t83 133h213q-35 -180 -153 -273t-283 -93q-111 0 -196 45t-138 137 q-53 -92 -139.5 -137t-196.5 -45q-96 0 -176 32.5t-137.5 93t-90 147.5t-32.5 196zM317 455q0 -133 61.5 -205t170.5 -72q104 0 168.5 67.5t64.5 194.5v258q0 129 -63.5 200t-169.5 71q-109 0 -170.5 -72t-61.5 -205v-237zM987 711h469q-6 141 -68.5 205.5t-166.5 64.5 t-166 -64.5t-68 -205.5z" />
<glyph unicode="&#x178;" horiz-adv-x="1191" d="M6 1536h246l342 -637h4l342 637h246l-481 -872v-664h-218v664zM285 1687v228h215v-228h-215zM692 1687v228h215v-228h-215z" />
<glyph unicode="&#x2c6;" horiz-adv-x="1024" d="M109 1348l317 391h172l317 -391h-170l-233 270l-233 -270h-170z" />
<glyph unicode="&#x2dc;" horiz-adv-x="1024" d="M102 1372q10 131 68.5 206t161.5 75q86 0 182 -68q33 -25 58.5 -41t46 -26.5t39 -15.5t40.5 -5q35 0 64 28.5t35 100.5h125q-10 -131 -68.5 -205.5t-163.5 -74.5q-88 0 -180 67q-35 25 -59.5 41t-45 26.5t-39 15.5t-40.5 5q-35 0 -62.5 -28.5t-36.5 -100.5h-125z" />
<glyph unicode="&#x2000;" horiz-adv-x="1045" />
<glyph unicode="&#x2001;" horiz-adv-x="2091" />
<glyph unicode="&#x2002;" horiz-adv-x="1045" />
<glyph unicode="&#x2003;" horiz-adv-x="2091" />
<glyph unicode="&#x2004;" horiz-adv-x="697" />
<glyph unicode="&#x2005;" horiz-adv-x="522" />
<glyph unicode="&#x2006;" horiz-adv-x="348" />
<glyph unicode="&#x2007;" horiz-adv-x="348" />
<glyph unicode="&#x2008;" horiz-adv-x="261" />
<glyph unicode="&#x2009;" horiz-adv-x="418" />
<glyph unicode="&#x200a;" horiz-adv-x="116" />
<glyph unicode="&#x2010;" horiz-adv-x="913" d="M82 709v180h749v-180h-749z" />
<glyph unicode="&#x2011;" horiz-adv-x="913" d="M82 709v180h749v-180h-749z" />
<glyph unicode="&#x2012;" horiz-adv-x="913" d="M82 709v180h749v-180h-749z" />
<glyph unicode="&#x2013;" horiz-adv-x="1179" d="M92 709v180h995v-180h-995z" />
<glyph unicode="&#x2014;" horiz-adv-x="1425" d="M92 709v180h1241v-180h-1241z" />
<glyph unicode="&#x2018;" horiz-adv-x="466" d="M92 934v223q0 63 14.5 126t48 115t90 89t140.5 49v-102q-92 -29 -123 -88.5t-31 -118.5q0 -25 23 -25h111v-268h-273z" />
<glyph unicode="&#x2019;" horiz-adv-x="464" d="M86 934v102q92 29 123 88.5t31 118.5q0 25 -23 25h-111v268h273v-223q0 -63 -14.5 -127t-48 -116t-90 -88t-140.5 -48z" />
<glyph unicode="&#x201a;" horiz-adv-x="466" d="M82 -231q92 29 123 88t31 118q0 25 -23 25h-111v268h273v-223q0 -63 -14.5 -126.5t-48 -116t-90 -88.5t-140.5 -48v103z" />
<glyph unicode="&#x201c;" horiz-adv-x="876" d="M92 934v223q0 63 14.5 126t48 115t90 89t140.5 49v-102q-92 -29 -123 -88.5t-31 -118.5q0 -25 23 -25h111v-268h-273zM502 934v223q0 63 14 126t48 115t90.5 89t140.5 49v-102q-92 -29 -123 -88.5t-31 -118.5q0 -25 23 -25h110v-268h-272z" />
<glyph unicode="&#x201d;" horiz-adv-x="874" d="M86 934v102q92 29 123 88.5t31 118.5q0 25 -23 25h-111v268h273v-223q0 -63 -14.5 -127t-48 -116t-90 -88t-140.5 -48zM496 934v102q92 29 122.5 88.5t30.5 118.5q0 25 -22 25h-111v268h272v-223q0 -63 -14 -127t-48 -116t-90 -88t-140 -48z" />
<glyph unicode="&#x201e;" horiz-adv-x="876" d="M82 -231q92 29 123 88t31 118q0 25 -23 25h-111v268h273v-223q0 -63 -14.5 -126.5t-48 -116t-90 -88.5t-140.5 -48v103zM492 -231q92 29 122.5 88t30.5 118q0 25 -22 25h-111v268h272v-223q0 -63 -14 -126.5t-48 -116t-90.5 -88.5t-139.5 -48v103z" />
<glyph unicode="&#x2022;" horiz-adv-x="632" d="M123 645v404h387v-404h-387z" />
<glyph unicode="&#x2026;" horiz-adv-x="1400" d="M104 0v268h258v-268h-258zM571 0v268h258v-268h-258zM1038 0v268h258v-268h-258z" />
<glyph unicode="&#x202f;" horiz-adv-x="418" />
<glyph unicode="&#x2039;" horiz-adv-x="634" d="M57 668l475 510v-228l-264 -282l264 -283v-227z" />
<glyph unicode="&#x203a;" horiz-adv-x="634" d="M102 158v227l265 283l-265 282v228l476 -510z" />
<glyph unicode="&#x205f;" horiz-adv-x="522" />
<glyph unicode="&#x20ac;" d="M0 522l45 140h141v188h-186l45 139h141v74q0 115 39 207t103.5 155.5t148.5 97t176 33.5h4q88 0 169 -30.5t144.5 -88t104.5 -138t47 -181.5h-209q-23 119 -96.5 180.5t-159.5 61.5h-4q-49 0 -96 -17.5t-84 -54.5t-59.5 -94t-22.5 -137v-68h469l-49 -139h-420v-188h365 l-49 -140h-316v-43q0 -82 22.5 -139t59.5 -94t84 -53.5t96 -16.5h4q41 0 82 15.5t75 45t59.5 73.5t37.5 104h211q-8 -98 -47 -179t-102.5 -137.5t-144 -87t-171.5 -30.5h-4q-92 0 -176 33.5t-148.5 97t-103.5 155.5t-39 207v49h-186z" />
<glyph unicode="&#x2122;" horiz-adv-x="1200" d="M37 1440v96h434v-96h-164v-518h-104v518h-166zM549 922v614h131l147 -479l150 479h131v-614h-104v415l-132 -415h-88l-131 417v-417h-104z" />
<glyph unicode="&#x25fc;" horiz-adv-x="1146" d="M0 0v1147h1147v-1147h-1147z" />
</font>
</defs>
</svg>
